G04*
G04 #@! TF.GenerationSoftware,Altium Limited,Altium Designer,23.6.0 (18)*
G04*
G04 Layer_Color=16711935*
%FSLAX44Y44*%
%MOMM*%
G71*
G04*
G04 #@! TF.SameCoordinates,3CA1A126-1A8B-4A0E-99CF-AA2F4EF1290A*
G04*
G04*
G04 #@! TF.FilePolarity,Negative*
G04*
G01*
G75*
%ADD49O,2.2352X1.9812*%
%ADD50R,4.2032X1.7032*%
%ADD51R,3.7032X1.7032*%
%ADD52R,1.7032X3.7032*%
%ADD53R,1.7032X1.7032*%
%ADD54C,1.7032*%
G04:AMPARAMS|DCode=55|XSize=1.4032mm|YSize=1.9032mm|CornerRadius=0.7016mm|HoleSize=0mm|Usage=FLASHONLY|Rotation=0.000|XOffset=0mm|YOffset=0mm|HoleType=Round|Shape=RoundedRectangle|*
%AMROUNDEDRECTD55*
21,1,1.4032,0.5000,0,0,0.0*
21,1,0.0000,1.9032,0,0,0.0*
1,1,1.4032,0.0000,-0.2500*
1,1,1.4032,0.0000,-0.2500*
1,1,1.4032,0.0000,0.2500*
1,1,1.4032,0.0000,0.2500*
%
%ADD55ROUNDEDRECTD55*%
%ADD56O,2.2032X1.2032*%
%ADD57C,1.0032*%
%ADD58C,2.6032*%
%ADD59R,1.5500X1.5500*%
%ADD60C,1.5500*%
%ADD61R,1.7032X1.7032*%
%ADD62O,1.9812X2.2352*%
D49*
X782500Y445200D02*
D03*
Y419800D02*
D03*
D50*
X541000Y367000D02*
D03*
D51*
Y307000D02*
D03*
D52*
X588000Y337000D02*
D03*
D53*
X955000Y1014100D02*
D03*
D54*
Y988700D02*
D03*
Y963300D02*
D03*
Y937900D02*
D03*
Y912500D02*
D03*
Y887100D02*
D03*
Y861700D02*
D03*
Y836300D02*
D03*
X499200Y420000D02*
D03*
Y445400D02*
D03*
X524600Y420000D02*
D03*
Y445400D02*
D03*
X550000Y420000D02*
D03*
Y445400D02*
D03*
X575400Y420000D02*
D03*
Y445400D02*
D03*
X600800Y420000D02*
D03*
Y445400D02*
D03*
X626200Y420000D02*
D03*
Y445400D02*
D03*
X651600Y420000D02*
D03*
Y445400D02*
D03*
X677000Y420000D02*
D03*
Y445400D02*
D03*
X702400Y420000D02*
D03*
Y445400D02*
D03*
X727800Y420000D02*
D03*
D55*
X650500Y1122500D02*
D03*
X665500D02*
D03*
X680500D02*
D03*
X695500D02*
D03*
X710500D02*
D03*
X725500D02*
D03*
X740500D02*
D03*
X755500D02*
D03*
X770500D02*
D03*
X785500D02*
D03*
D56*
X891043Y1140602D02*
D03*
X545000Y1140500D02*
D03*
D57*
X919000Y1121000D02*
D03*
X517000D02*
D03*
Y1352000D02*
D03*
X919000D02*
D03*
D58*
X970000Y1345000D02*
D03*
X470000D02*
D03*
X970000Y255000D02*
D03*
X470000D02*
D03*
D59*
X837500Y1095000D02*
D03*
X537500Y775000D02*
D03*
Y1015000D02*
D03*
Y1095000D02*
D03*
X637500D02*
D03*
Y1015000D02*
D03*
X837500D02*
D03*
X737500D02*
D03*
Y1095000D02*
D03*
X637500Y855000D02*
D03*
X537500D02*
D03*
X637500Y775000D02*
D03*
X737500D02*
D03*
X837500D02*
D03*
Y855000D02*
D03*
X537500Y935000D02*
D03*
X637500D02*
D03*
X837500D02*
D03*
X737500Y855000D02*
D03*
Y935000D02*
D03*
D60*
X902500Y1095000D02*
D03*
X837500Y1050000D02*
D03*
X902500D02*
D03*
X602500Y775000D02*
D03*
X537500Y730000D02*
D03*
X602500D02*
D03*
Y970000D02*
D03*
X537500D02*
D03*
X602500Y1015000D02*
D03*
Y1050000D02*
D03*
X537500D02*
D03*
X602500Y1095000D02*
D03*
X702500Y1050000D02*
D03*
X637500D02*
D03*
X702500Y1095000D02*
D03*
Y1015000D02*
D03*
X637500Y970000D02*
D03*
X702500D02*
D03*
X902500D02*
D03*
X837500D02*
D03*
X902500Y1015000D02*
D03*
X802500D02*
D03*
X737500Y970000D02*
D03*
X802500D02*
D03*
Y1050000D02*
D03*
X737500D02*
D03*
X802500Y1095000D02*
D03*
X702500Y855000D02*
D03*
X637500Y810000D02*
D03*
X702500D02*
D03*
X602500D02*
D03*
X537500D02*
D03*
X602500Y855000D02*
D03*
X702500Y730000D02*
D03*
X637500D02*
D03*
X702500Y775000D02*
D03*
X802500Y730000D02*
D03*
X737500D02*
D03*
X802500Y775000D02*
D03*
X902500Y730000D02*
D03*
X837500D02*
D03*
X902500Y775000D02*
D03*
Y810000D02*
D03*
X837500D02*
D03*
X902500Y855000D02*
D03*
X602500Y890000D02*
D03*
X537500D02*
D03*
X602500Y935000D02*
D03*
X702500D02*
D03*
X637500Y890000D02*
D03*
X702500D02*
D03*
X902500D02*
D03*
X837500D02*
D03*
X902500Y935000D02*
D03*
X802500Y855000D02*
D03*
X737500Y810000D02*
D03*
X802500D02*
D03*
Y935000D02*
D03*
X737500Y890000D02*
D03*
X802500D02*
D03*
D61*
X727800Y445400D02*
D03*
D62*
X672900Y370000D02*
D03*
X647500D02*
D03*
M02*
