G04*
G04 #@! TF.GenerationSoftware,Altium Limited,Altium Designer,23.6.0 (18)*
G04*
G04 Layer_Color=8388736*
%FSLAX44Y44*%
%MOMM*%
G71*
G04*
G04 #@! TF.SameCoordinates,3CA1A126-1A8B-4A0E-99CF-AA2F4EF1290A*
G04*
G04*
G04 #@! TF.FilePolarity,Negative*
G04*
G01*
G75*
%ADD17R,1.7000X0.9500*%
%ADD18R,1.5000X1.5000*%
G04:AMPARAMS|DCode=20|XSize=1.0552mm|YSize=0.5225mm|CornerRadius=0.2612mm|HoleSize=0mm|Usage=FLASHONLY|Rotation=0.000|XOffset=0mm|YOffset=0mm|HoleType=Round|Shape=RoundedRectangle|*
%AMROUNDEDRECTD20*
21,1,1.0552,0.0000,0,0,0.0*
21,1,0.5328,0.5225,0,0,0.0*
1,1,0.5225,0.2664,0.0000*
1,1,0.5225,-0.2664,0.0000*
1,1,0.5225,-0.2664,0.0000*
1,1,0.5225,0.2664,0.0000*
%
%ADD20ROUNDEDRECTD20*%
%ADD21R,1.0552X0.5225*%
%ADD23R,1.7062X1.1046*%
%ADD26R,1.0000X2.5000*%
%ADD27R,0.9500X1.7000*%
%ADD29R,1.3046X1.8062*%
%ADD30R,1.5562X1.4549*%
%ADD31R,1.1000X1.3500*%
%ADD35R,3.0000X2.0000*%
G04:AMPARAMS|DCode=36|XSize=1.336mm|YSize=0.5851mm|CornerRadius=0.2925mm|HoleSize=0mm|Usage=FLASHONLY|Rotation=90.000|XOffset=0mm|YOffset=0mm|HoleType=Round|Shape=RoundedRectangle|*
%AMROUNDEDRECTD36*
21,1,1.3360,0.0000,0,0,90.0*
21,1,0.7510,0.5851,0,0,90.0*
1,1,0.5851,0.0000,0.3755*
1,1,0.5851,0.0000,-0.3755*
1,1,0.5851,0.0000,-0.3755*
1,1,0.5851,0.0000,0.3755*
%
%ADD36ROUNDEDRECTD36*%
%ADD37R,0.5851X1.3360*%
%ADD38R,2.0032X1.4532*%
%ADD39O,0.4532X1.7532*%
%ADD40O,1.7532X0.4532*%
%ADD41R,2.6032X2.1632*%
%ADD42R,1.4532X2.0032*%
%ADD43R,1.8032X2.3832*%
%ADD44R,1.8032X2.4032*%
%ADD45R,1.9032X1.3032*%
%ADD46R,1.8032X1.0532*%
%ADD47R,10.6532X8.4032*%
%ADD48R,1.1532X3.7032*%
%ADD49O,2.2352X1.9812*%
%ADD50R,4.2032X1.7032*%
%ADD51R,3.7032X1.7032*%
%ADD52R,1.7032X3.7032*%
%ADD53R,1.7032X1.7032*%
%ADD54C,1.7032*%
G04:AMPARAMS|DCode=55|XSize=1.4032mm|YSize=1.9032mm|CornerRadius=0.7016mm|HoleSize=0mm|Usage=FLASHONLY|Rotation=0.000|XOffset=0mm|YOffset=0mm|HoleType=Round|Shape=RoundedRectangle|*
%AMROUNDEDRECTD55*
21,1,1.4032,0.5000,0,0,0.0*
21,1,0.0000,1.9032,0,0,0.0*
1,1,1.4032,0.0000,-0.2500*
1,1,1.4032,0.0000,-0.2500*
1,1,1.4032,0.0000,0.2500*
1,1,1.4032,0.0000,0.2500*
%
%ADD55ROUNDEDRECTD55*%
%ADD56O,2.2032X1.2032*%
%ADD57C,1.0032*%
%ADD58C,2.6032*%
%ADD59R,1.5500X1.5500*%
%ADD60C,1.5500*%
%ADD61R,1.7032X1.7032*%
%ADD62O,1.9812X2.2352*%
D17*
X845000Y559000D02*
D03*
Y531000D02*
D03*
X925000D02*
D03*
Y559000D02*
D03*
X615000Y525000D02*
D03*
Y553000D02*
D03*
X646000Y525000D02*
D03*
Y553000D02*
D03*
X677000D02*
D03*
Y525000D02*
D03*
X706000Y553000D02*
D03*
Y525000D02*
D03*
X736000Y553000D02*
D03*
Y525000D02*
D03*
D18*
X940000Y380000D02*
D03*
Y415000D02*
D03*
D20*
X656255Y255000D02*
D03*
X638745Y245500D02*
D03*
D21*
Y264500D02*
D03*
D23*
X492500Y1260508D02*
D03*
Y1234492D02*
D03*
X493000Y1217500D02*
D03*
Y1191484D02*
D03*
D26*
X492500Y490000D02*
D03*
X542500D02*
D03*
X517500Y545000D02*
D03*
D27*
X706000Y580000D02*
D03*
X734000D02*
D03*
X706000Y625000D02*
D03*
X734000D02*
D03*
X756000Y580000D02*
D03*
X784000D02*
D03*
X937000Y264000D02*
D03*
X909000D02*
D03*
D29*
X755992Y625000D02*
D03*
X784008D02*
D03*
D30*
X784000Y530743D02*
D03*
Y549257D02*
D03*
D31*
X908500Y290000D02*
D03*
X941500D02*
D03*
D35*
X732500Y347500D02*
D03*
Y287500D02*
D03*
D36*
X647500Y335401D02*
D03*
X657000Y314599D02*
D03*
D37*
X638000D02*
D03*
D38*
X960000Y650250D02*
D03*
Y619750D02*
D03*
X880000Y649500D02*
D03*
Y619000D02*
D03*
X537500Y544750D02*
D03*
Y575250D02*
D03*
X612500Y345250D02*
D03*
Y314750D02*
D03*
D39*
X555500Y596750D02*
D03*
X550500D02*
D03*
X545500D02*
D03*
X540500D02*
D03*
X535500D02*
D03*
X530500D02*
D03*
X525500D02*
D03*
X520500D02*
D03*
X515500D02*
D03*
X510500D02*
D03*
X505500D02*
D03*
X500500D02*
D03*
Y677250D02*
D03*
X505500D02*
D03*
X510500D02*
D03*
X515500D02*
D03*
X520500D02*
D03*
X525500D02*
D03*
X530500D02*
D03*
X535500D02*
D03*
X540500D02*
D03*
X545500D02*
D03*
X550500D02*
D03*
X555500D02*
D03*
D40*
X487750Y609500D02*
D03*
Y614500D02*
D03*
Y619500D02*
D03*
Y624500D02*
D03*
Y629500D02*
D03*
Y634500D02*
D03*
Y639500D02*
D03*
Y644500D02*
D03*
Y649500D02*
D03*
Y654500D02*
D03*
Y659500D02*
D03*
Y664500D02*
D03*
X568250D02*
D03*
Y659500D02*
D03*
Y654500D02*
D03*
Y649500D02*
D03*
Y644500D02*
D03*
Y639500D02*
D03*
Y634500D02*
D03*
Y629500D02*
D03*
Y624500D02*
D03*
Y619500D02*
D03*
Y614500D02*
D03*
Y609500D02*
D03*
D41*
X665000Y590000D02*
D03*
Y635000D02*
D03*
D42*
X622750Y392500D02*
D03*
X592250D02*
D03*
X539750D02*
D03*
X570250D02*
D03*
X472000D02*
D03*
X502500D02*
D03*
D43*
X880000Y499050D02*
D03*
X960000D02*
D03*
D44*
X880000Y590950D02*
D03*
X960000D02*
D03*
D45*
X625000Y590500D02*
D03*
Y619500D02*
D03*
D46*
X940000Y360750D02*
D03*
Y334250D02*
D03*
D47*
X828000Y281000D02*
D03*
D48*
X802600Y382500D02*
D03*
X828000D02*
D03*
X853400D02*
D03*
D49*
X782500Y445200D02*
D03*
Y419800D02*
D03*
D50*
X541000Y367000D02*
D03*
D51*
Y307000D02*
D03*
D52*
X588000Y337000D02*
D03*
D53*
X955000Y1014100D02*
D03*
D54*
Y988700D02*
D03*
Y963300D02*
D03*
Y937900D02*
D03*
Y912500D02*
D03*
Y887100D02*
D03*
Y861700D02*
D03*
Y836300D02*
D03*
X499200Y420000D02*
D03*
Y445400D02*
D03*
X524600Y420000D02*
D03*
Y445400D02*
D03*
X550000Y420000D02*
D03*
Y445400D02*
D03*
X575400Y420000D02*
D03*
Y445400D02*
D03*
X600800Y420000D02*
D03*
Y445400D02*
D03*
X626200Y420000D02*
D03*
Y445400D02*
D03*
X651600Y420000D02*
D03*
Y445400D02*
D03*
X677000Y420000D02*
D03*
Y445400D02*
D03*
X702400Y420000D02*
D03*
Y445400D02*
D03*
X727800Y420000D02*
D03*
D55*
X650500Y1122500D02*
D03*
X665500D02*
D03*
X680500D02*
D03*
X695500D02*
D03*
X710500D02*
D03*
X725500D02*
D03*
X740500D02*
D03*
X755500D02*
D03*
X770500D02*
D03*
X785500D02*
D03*
D56*
X891043Y1140602D02*
D03*
X545000Y1140500D02*
D03*
D57*
X919000Y1121000D02*
D03*
X517000D02*
D03*
Y1352000D02*
D03*
X919000D02*
D03*
D58*
X970000Y1345000D02*
D03*
X470000D02*
D03*
X970000Y255000D02*
D03*
X470000D02*
D03*
D59*
X837500Y1095000D02*
D03*
X537500Y775000D02*
D03*
Y1015000D02*
D03*
Y1095000D02*
D03*
X637500D02*
D03*
Y1015000D02*
D03*
X837500D02*
D03*
X737500D02*
D03*
Y1095000D02*
D03*
X637500Y855000D02*
D03*
X537500D02*
D03*
X637500Y775000D02*
D03*
X737500D02*
D03*
X837500D02*
D03*
Y855000D02*
D03*
X537500Y935000D02*
D03*
X637500D02*
D03*
X837500D02*
D03*
X737500Y855000D02*
D03*
Y935000D02*
D03*
D60*
X902500Y1095000D02*
D03*
X837500Y1050000D02*
D03*
X902500D02*
D03*
X602500Y775000D02*
D03*
X537500Y730000D02*
D03*
X602500D02*
D03*
Y970000D02*
D03*
X537500D02*
D03*
X602500Y1015000D02*
D03*
Y1050000D02*
D03*
X537500D02*
D03*
X602500Y1095000D02*
D03*
X702500Y1050000D02*
D03*
X637500D02*
D03*
X702500Y1095000D02*
D03*
Y1015000D02*
D03*
X637500Y970000D02*
D03*
X702500D02*
D03*
X902500D02*
D03*
X837500D02*
D03*
X902500Y1015000D02*
D03*
X802500D02*
D03*
X737500Y970000D02*
D03*
X802500D02*
D03*
Y1050000D02*
D03*
X737500D02*
D03*
X802500Y1095000D02*
D03*
X702500Y855000D02*
D03*
X637500Y810000D02*
D03*
X702500D02*
D03*
X602500D02*
D03*
X537500D02*
D03*
X602500Y855000D02*
D03*
X702500Y730000D02*
D03*
X637500D02*
D03*
X702500Y775000D02*
D03*
X802500Y730000D02*
D03*
X737500D02*
D03*
X802500Y775000D02*
D03*
X902500Y730000D02*
D03*
X837500D02*
D03*
X902500Y775000D02*
D03*
Y810000D02*
D03*
X837500D02*
D03*
X902500Y855000D02*
D03*
X602500Y890000D02*
D03*
X537500D02*
D03*
X602500Y935000D02*
D03*
X702500D02*
D03*
X637500Y890000D02*
D03*
X702500D02*
D03*
X902500D02*
D03*
X837500D02*
D03*
X902500Y935000D02*
D03*
X802500Y855000D02*
D03*
X737500Y810000D02*
D03*
X802500D02*
D03*
Y935000D02*
D03*
X737500Y890000D02*
D03*
X802500D02*
D03*
D61*
X727800Y445400D02*
D03*
D62*
X672900Y370000D02*
D03*
X647500D02*
D03*
M02*
