G04*
G04 #@! TF.GenerationSoftware,Altium Limited,Altium Designer,23.6.0 (18)*
G04*
G04 Layer_Physical_Order=2*
G04 Layer_Color=16711680*
%FSLAX44Y44*%
%MOMM*%
G71*
G04*
G04 #@! TF.SameCoordinates,3CA1A126-1A8B-4A0E-99CF-AA2F4EF1290A*
G04*
G04*
G04 #@! TF.FilePolarity,Positive*
G04*
G01*
G75*
%ADD18R,1.5000X1.5000*%
%ADD59R,1.5500X1.5500*%
%ADD60C,1.5500*%
%ADD63C,0.3000*%
%ADD64C,1.0000*%
%ADD65C,0.5000*%
%ADD68O,2.0320X1.7780*%
%ADD69R,4.0000X1.5000*%
%ADD70R,3.5000X1.5000*%
%ADD71R,1.5000X3.5000*%
%ADD72C,1.5000*%
G04:AMPARAMS|DCode=73|XSize=1.2mm|YSize=1.7mm|CornerRadius=0.6mm|HoleSize=0mm|Usage=FLASHONLY|Rotation=0.000|XOffset=0mm|YOffset=0mm|HoleType=Round|Shape=RoundedRectangle|*
%AMROUNDEDRECTD73*
21,1,1.2000,0.5000,0,0,0.0*
21,1,0.0000,1.7000,0,0,0.0*
1,1,1.2000,0.0000,-0.2500*
1,1,1.2000,0.0000,-0.2500*
1,1,1.2000,0.0000,0.2500*
1,1,1.2000,0.0000,0.2500*
%
%ADD73ROUNDEDRECTD73*%
%ADD74O,2.0000X1.0000*%
%ADD75C,0.8000*%
%ADD76C,2.4000*%
%ADD77R,1.5000X1.5000*%
%ADD78O,1.7780X2.0320*%
%ADD79C,1.2700*%
G36*
X465000Y1365000D02*
X975000Y1365000D01*
X975000Y1365000D01*
X975000Y1365000D01*
X976477Y1365000D01*
X979375Y1364423D01*
X982105Y1363293D01*
X984562Y1361651D01*
X986651Y1359562D01*
X988293Y1357105D01*
X989424Y1354375D01*
X990000Y1351477D01*
Y1350000D01*
X990000Y250000D01*
X990000Y250000D01*
Y248523D01*
X989423Y245625D01*
X988293Y242895D01*
X986651Y240438D01*
X984562Y238349D01*
X982105Y236707D01*
X979375Y235576D01*
X976477Y235000D01*
X465000D01*
X463522Y235000D01*
X460625Y235576D01*
X457895Y236707D01*
X455438Y238349D01*
X453349Y240438D01*
X451707Y242895D01*
X450576Y245625D01*
X450000Y248522D01*
X450000Y250000D01*
Y383852D01*
X451100Y384487D01*
X451569Y384216D01*
X453730Y383637D01*
Y392500D01*
Y401363D01*
X451569Y400784D01*
X451100Y400513D01*
X450000Y401148D01*
Y601288D01*
X451270Y601455D01*
X451287Y601391D01*
X452518Y599259D01*
X454259Y597518D01*
X456391Y596287D01*
X457635Y595954D01*
X464294Y589294D01*
X504294Y549294D01*
X505965Y548012D01*
X507912Y547206D01*
X510000Y546931D01*
X519931D01*
Y493724D01*
X519287Y492609D01*
X518650Y490231D01*
Y487769D01*
X519287Y485391D01*
X520518Y483259D01*
X522259Y481518D01*
X524391Y480287D01*
X526769Y479650D01*
X529231D01*
X531609Y480287D01*
X533741Y481518D01*
X535482Y483259D01*
X536713Y485391D01*
X537350Y487769D01*
Y490231D01*
X536713Y492609D01*
X536069Y493724D01*
Y546931D01*
X572776D01*
X573891Y546287D01*
X576269Y545650D01*
X578731D01*
X581109Y546287D01*
X583241Y547518D01*
X584982Y549259D01*
X586213Y551391D01*
X586850Y553769D01*
Y556231D01*
X586213Y558609D01*
X584982Y560741D01*
X583241Y562482D01*
X581109Y563713D01*
X578731Y564350D01*
X576269D01*
X573891Y563713D01*
X572776Y563069D01*
X513342D01*
X478069Y598342D01*
Y666658D01*
X494865Y683454D01*
X496109Y683787D01*
X498241Y685018D01*
X499982Y686759D01*
X501213Y688891D01*
X501850Y691269D01*
Y693731D01*
X501213Y696109D01*
X499982Y698241D01*
X498241Y699982D01*
X496109Y701213D01*
X493731Y701850D01*
X491269D01*
X488891Y701213D01*
X486759Y699982D01*
X485018Y698241D01*
X483787Y696109D01*
X483454Y694865D01*
X464294Y675706D01*
X463012Y674035D01*
X462206Y672088D01*
X461931Y670000D01*
Y632301D01*
X460758Y631815D01*
X460459Y632114D01*
X458431Y633284D01*
X456270Y633863D01*
Y625000D01*
X453730D01*
Y633863D01*
X451569Y633284D01*
X451100Y633013D01*
X450000Y633648D01*
X450000Y1348804D01*
X450000Y1350000D01*
X450000Y1350000D01*
X450000Y1350000D01*
X450000Y1351477D01*
X450576Y1354375D01*
X451707Y1357105D01*
X453349Y1359562D01*
X455438Y1361651D01*
X457895Y1363293D01*
X460625Y1364424D01*
X463522Y1365000D01*
X465000Y1365000D01*
D02*
G37*
%LPC*%
G36*
X971914Y1359540D02*
X971270D01*
Y1346270D01*
X984540D01*
Y1346914D01*
X983549Y1350612D01*
X981635Y1353928D01*
X978928Y1356635D01*
X975612Y1358549D01*
X971914Y1359540D01*
D02*
G37*
G36*
X968730D02*
X968086D01*
X964388Y1358549D01*
X961072Y1356635D01*
X958365Y1353928D01*
X956451Y1350612D01*
X955460Y1346914D01*
Y1346270D01*
X968730D01*
Y1359540D01*
D02*
G37*
G36*
X471914D02*
X471270D01*
Y1346270D01*
X484540D01*
Y1346914D01*
X483549Y1350612D01*
X481635Y1353928D01*
X478928Y1356635D01*
X475612Y1358549D01*
X471914Y1359540D01*
D02*
G37*
G36*
X468730D02*
X468086D01*
X464388Y1358549D01*
X461072Y1356635D01*
X458365Y1353928D01*
X456451Y1350612D01*
X455460Y1346914D01*
Y1346270D01*
X468730D01*
Y1359540D01*
D02*
G37*
G36*
X919922Y1359000D02*
X918079D01*
X916298Y1358523D01*
X914702Y1357601D01*
X913399Y1356298D01*
X912477Y1354702D01*
X912000Y1352922D01*
Y1351078D01*
X912477Y1349298D01*
X913399Y1347702D01*
X914702Y1346399D01*
X916298Y1345477D01*
X918079Y1345000D01*
X919922D01*
X921702Y1345477D01*
X923298Y1346399D01*
X924602Y1347702D01*
X925523Y1349298D01*
X926000Y1351078D01*
Y1352922D01*
X925523Y1354702D01*
X924602Y1356298D01*
X923298Y1357601D01*
X921702Y1358523D01*
X919922Y1359000D01*
D02*
G37*
G36*
X517921D02*
X516078D01*
X514298Y1358523D01*
X512702Y1357601D01*
X511399Y1356298D01*
X510477Y1354702D01*
X510000Y1352922D01*
Y1351078D01*
X510477Y1349298D01*
X511399Y1347702D01*
X512702Y1346399D01*
X514298Y1345477D01*
X516078Y1345000D01*
X517921D01*
X519702Y1345477D01*
X521298Y1346399D01*
X522601Y1347702D01*
X523523Y1349298D01*
X524000Y1351078D01*
Y1352922D01*
X523523Y1354702D01*
X522601Y1356298D01*
X521298Y1357601D01*
X519702Y1358523D01*
X517921Y1359000D01*
D02*
G37*
G36*
X984540Y1343730D02*
X971270D01*
Y1330460D01*
X971914D01*
X975612Y1331451D01*
X978928Y1333365D01*
X981635Y1336072D01*
X983549Y1339388D01*
X984540Y1343086D01*
Y1343730D01*
D02*
G37*
G36*
X968730D02*
X955460D01*
Y1343086D01*
X956451Y1339388D01*
X958365Y1336072D01*
X961072Y1333365D01*
X964388Y1331451D01*
X968086Y1330460D01*
X968730D01*
Y1343730D01*
D02*
G37*
G36*
X484540D02*
X471270D01*
Y1330460D01*
X471914D01*
X475612Y1331451D01*
X478928Y1333365D01*
X481635Y1336072D01*
X483549Y1339388D01*
X484540Y1343086D01*
Y1343730D01*
D02*
G37*
G36*
X468730D02*
X455460D01*
Y1343086D01*
X456451Y1339388D01*
X458365Y1336072D01*
X461072Y1333365D01*
X464388Y1331451D01*
X468086Y1330460D01*
X468730D01*
Y1343730D01*
D02*
G37*
G36*
X472270Y1268863D02*
Y1261270D01*
X479863D01*
X479284Y1263431D01*
X478114Y1265459D01*
X476459Y1267114D01*
X474431Y1268284D01*
X472270Y1268863D01*
D02*
G37*
G36*
X469730D02*
X467569Y1268284D01*
X465541Y1267114D01*
X463886Y1265459D01*
X462716Y1263431D01*
X462137Y1261270D01*
X469730D01*
Y1268863D01*
D02*
G37*
G36*
X479863Y1258730D02*
X472270D01*
Y1251137D01*
X474431Y1251716D01*
X476459Y1252886D01*
X478114Y1254541D01*
X479284Y1256569D01*
X479863Y1258730D01*
D02*
G37*
G36*
X469730D02*
X462137D01*
X462716Y1256569D01*
X463886Y1254541D01*
X465541Y1252886D01*
X467569Y1251716D01*
X469730Y1251137D01*
Y1258730D01*
D02*
G37*
G36*
X550000Y1148105D02*
X546270D01*
Y1141770D01*
X557438D01*
X557346Y1142468D01*
X556586Y1144303D01*
X555378Y1145878D01*
X553802Y1147086D01*
X551968Y1147846D01*
X550000Y1148105D01*
D02*
G37*
G36*
X543730D02*
X540000D01*
X538032Y1147846D01*
X536197Y1147086D01*
X534622Y1145878D01*
X533414Y1144303D01*
X532654Y1142468D01*
X532562Y1141770D01*
X543730D01*
Y1148105D01*
D02*
G37*
G36*
X557438Y1139230D02*
X546270D01*
Y1132895D01*
X550000D01*
X551968Y1133154D01*
X553802Y1133914D01*
X555378Y1135122D01*
X556586Y1136697D01*
X557346Y1138532D01*
X557438Y1139230D01*
D02*
G37*
G36*
X543730D02*
X532562D01*
X532654Y1138532D01*
X533414Y1136697D01*
X534622Y1135122D01*
X536197Y1133914D01*
X538032Y1133154D01*
X540000Y1132895D01*
X543730D01*
Y1139230D01*
D02*
G37*
G36*
X473231Y1243350D02*
X470769D01*
X468391Y1242713D01*
X466259Y1241482D01*
X464518Y1239741D01*
X463287Y1237609D01*
X462650Y1235231D01*
Y1232769D01*
X463287Y1230391D01*
X464518Y1228259D01*
X466259Y1226518D01*
X466923Y1226135D01*
Y1224865D01*
X466259Y1224482D01*
X464518Y1222741D01*
X463287Y1220609D01*
X462650Y1218231D01*
Y1215769D01*
X463287Y1213391D01*
X464518Y1211259D01*
X466259Y1209518D01*
X468391Y1208287D01*
X470769Y1207650D01*
X473231D01*
X475609Y1208287D01*
X477741Y1209518D01*
X479482Y1211259D01*
X479559Y1211392D01*
X578677D01*
X657482Y1132588D01*
X656643Y1131631D01*
X655039Y1132861D01*
X652850Y1133768D01*
X650500Y1134078D01*
X648150Y1133768D01*
X645961Y1132861D01*
X644325Y1131606D01*
X580965Y1194965D01*
X579146Y1196181D01*
X577000Y1196608D01*
X479559D01*
X479482Y1196741D01*
X477741Y1198482D01*
X475609Y1199713D01*
X473231Y1200350D01*
X470769D01*
X468391Y1199713D01*
X466259Y1198482D01*
X464518Y1196741D01*
X463287Y1194609D01*
X462650Y1192231D01*
Y1189769D01*
X463287Y1187391D01*
X464518Y1185259D01*
X466259Y1183518D01*
X468391Y1182287D01*
X470769Y1181650D01*
X473231D01*
X475609Y1182287D01*
X477741Y1183518D01*
X479482Y1185259D01*
X479559Y1185392D01*
X574677D01*
X641535Y1118535D01*
X641623Y1118476D01*
X641732Y1117651D01*
X642638Y1115461D01*
X644081Y1113581D01*
X645961Y1112139D01*
X648150Y1111232D01*
X650500Y1110922D01*
X652850Y1111232D01*
X655039Y1112139D01*
X656919Y1113581D01*
X657365Y1114163D01*
X658635D01*
X659081Y1113581D01*
X660961Y1112139D01*
X663150Y1111232D01*
X665500Y1110922D01*
X667850Y1111232D01*
X670039Y1112139D01*
X671919Y1113581D01*
X672365Y1114163D01*
X673635D01*
X674081Y1113581D01*
X675961Y1112139D01*
X678150Y1111232D01*
X680500Y1110922D01*
X682850Y1111232D01*
X685039Y1112139D01*
X686919Y1113581D01*
X687365Y1114163D01*
X688635D01*
X689081Y1113581D01*
X690961Y1112139D01*
X693150Y1111232D01*
X695500Y1110922D01*
X697850Y1111232D01*
X700039Y1112139D01*
X701919Y1113581D01*
X702655Y1114540D01*
X703925D01*
X704409Y1113909D01*
X706193Y1112540D01*
X708271Y1111680D01*
X709230Y1111553D01*
Y1122500D01*
Y1133447D01*
X708271Y1133320D01*
X706193Y1132460D01*
X704839Y1131421D01*
X703569Y1131982D01*
Y1155158D01*
X714342Y1165931D01*
X864800D01*
X878471Y1152260D01*
Y1143226D01*
X878249Y1142691D01*
X877974Y1140602D01*
X878249Y1138514D01*
X879055Y1136568D01*
X880337Y1134897D01*
X880422Y1134832D01*
X880834Y1134294D01*
X882505Y1133012D01*
X884451Y1132206D01*
X886540Y1131931D01*
X888628Y1132206D01*
X889418Y1132533D01*
X896043D01*
X898131Y1132808D01*
X900078Y1133614D01*
X901749Y1134897D01*
X903031Y1136568D01*
X903837Y1138514D01*
X904112Y1140602D01*
X903837Y1142691D01*
X903031Y1144637D01*
X901749Y1146308D01*
X900078Y1147590D01*
X898131Y1148396D01*
X896043Y1148671D01*
X894609D01*
Y1155602D01*
X894334Y1157691D01*
X893528Y1159637D01*
X892245Y1161308D01*
X873848Y1179706D01*
X872177Y1180988D01*
X870230Y1181794D01*
X868142Y1182069D01*
X711000D01*
X708912Y1181794D01*
X706965Y1180988D01*
X705294Y1179706D01*
X689794Y1164206D01*
X688512Y1162534D01*
X687706Y1160588D01*
X687431Y1158500D01*
Y1134063D01*
X686161Y1133357D01*
X686108Y1133390D01*
Y1143500D01*
X685681Y1145646D01*
X684465Y1147465D01*
X593965Y1237965D01*
X592146Y1239181D01*
X590000Y1239608D01*
X479559D01*
X479482Y1239741D01*
X477741Y1241482D01*
X475609Y1242713D01*
X473231Y1243350D01*
D02*
G37*
G36*
X785500Y1134078D02*
X783150Y1133768D01*
X780961Y1132861D01*
X779081Y1131419D01*
X778635Y1130837D01*
X777365D01*
X776919Y1131419D01*
X775039Y1132861D01*
X772850Y1133768D01*
X770500Y1134078D01*
X768150Y1133768D01*
X765961Y1132861D01*
X764081Y1131419D01*
X763635Y1130837D01*
X762365D01*
X761919Y1131419D01*
X760039Y1132861D01*
X757850Y1133768D01*
X755500Y1134078D01*
X753150Y1133768D01*
X750961Y1132861D01*
X749081Y1131419D01*
X748635Y1130837D01*
X747365D01*
X746919Y1131419D01*
X745039Y1132861D01*
X742850Y1133768D01*
X740500Y1134078D01*
X738150Y1133768D01*
X735961Y1132861D01*
X734081Y1131419D01*
X733635Y1130837D01*
X732365D01*
X731919Y1131419D01*
X730039Y1132861D01*
X727850Y1133768D01*
X725500Y1134078D01*
X723150Y1133768D01*
X720961Y1132861D01*
X719081Y1131419D01*
X718345Y1130460D01*
X717075D01*
X716591Y1131091D01*
X714807Y1132460D01*
X712729Y1133320D01*
X711770Y1133447D01*
Y1122500D01*
Y1111553D01*
X712729Y1111680D01*
X714807Y1112540D01*
X716591Y1113909D01*
X717075Y1114540D01*
X718345D01*
X719081Y1113581D01*
X720961Y1112139D01*
X723150Y1111232D01*
X725500Y1110922D01*
X727850Y1111232D01*
X730039Y1112139D01*
X731919Y1113581D01*
X732365Y1114163D01*
X733635D01*
X734081Y1113581D01*
X735961Y1112139D01*
X738150Y1111232D01*
X740500Y1110922D01*
X742850Y1111232D01*
X745039Y1112139D01*
X746919Y1113581D01*
X747365Y1114163D01*
X748635D01*
X749081Y1113581D01*
X750961Y1112139D01*
X753150Y1111232D01*
X755500Y1110922D01*
X757850Y1111232D01*
X760039Y1112139D01*
X761919Y1113581D01*
X762365Y1114163D01*
X763635D01*
X764081Y1113581D01*
X765961Y1112139D01*
X768150Y1111232D01*
X770500Y1110922D01*
X772850Y1111232D01*
X775039Y1112139D01*
X776919Y1113581D01*
X777365Y1114163D01*
X778635D01*
X779081Y1113581D01*
X780961Y1112139D01*
X783150Y1111232D01*
X785500Y1110922D01*
X787850Y1111232D01*
X790039Y1112139D01*
X791919Y1113581D01*
X793362Y1115461D01*
X794268Y1117651D01*
X794578Y1120000D01*
Y1125000D01*
X794268Y1127349D01*
X793362Y1129539D01*
X791919Y1131419D01*
X790039Y1132861D01*
X787850Y1133768D01*
X785500Y1134078D01*
D02*
G37*
G36*
X919922Y1128000D02*
X918078D01*
X916298Y1127523D01*
X914702Y1126601D01*
X913399Y1125298D01*
X912477Y1123702D01*
X912000Y1121922D01*
Y1120078D01*
X912477Y1118298D01*
X913399Y1116702D01*
X914702Y1115399D01*
X916298Y1114477D01*
X918078Y1114000D01*
X919922D01*
X921702Y1114477D01*
X923298Y1115399D01*
X924601Y1116702D01*
X925523Y1118298D01*
X926000Y1120078D01*
Y1121922D01*
X925523Y1123702D01*
X924601Y1125298D01*
X923298Y1126601D01*
X921702Y1127523D01*
X919922Y1128000D01*
D02*
G37*
G36*
X517921D02*
X516078D01*
X514298Y1127523D01*
X512702Y1126601D01*
X511399Y1125298D01*
X510477Y1123702D01*
X510000Y1121922D01*
Y1120078D01*
X510477Y1118298D01*
X511399Y1116702D01*
X512702Y1115399D01*
X514298Y1114477D01*
X516078Y1114000D01*
X517921D01*
X519702Y1114477D01*
X521298Y1115399D01*
X522601Y1116702D01*
X523523Y1118298D01*
X524000Y1120078D01*
Y1121922D01*
X523523Y1123702D01*
X522601Y1125298D01*
X521298Y1126601D01*
X519702Y1127523D01*
X517921Y1128000D01*
D02*
G37*
G36*
X903915Y1105750D02*
X901085D01*
X898351Y1105017D01*
X895899Y1103602D01*
X893898Y1101601D01*
X892483Y1099149D01*
X891750Y1096415D01*
Y1093585D01*
X892483Y1090851D01*
X893898Y1088399D01*
X895899Y1086398D01*
X898351Y1084983D01*
X901085Y1084250D01*
X903915D01*
X906649Y1084983D01*
X909101Y1086398D01*
X911102Y1088399D01*
X912517Y1090851D01*
X913250Y1093585D01*
Y1096415D01*
X912517Y1099149D01*
X911102Y1101601D01*
X909101Y1103602D01*
X906649Y1105017D01*
X903915Y1105750D01*
D02*
G37*
G36*
X848250D02*
X826750D01*
Y1084250D01*
X848250D01*
Y1105750D01*
D02*
G37*
G36*
X803915D02*
X801085D01*
X798351Y1105017D01*
X795899Y1103602D01*
X793898Y1101601D01*
X792483Y1099149D01*
X791750Y1096415D01*
Y1093585D01*
X792483Y1090851D01*
X793898Y1088399D01*
X795899Y1086398D01*
X798351Y1084983D01*
X801085Y1084250D01*
X803915D01*
X806649Y1084983D01*
X809101Y1086398D01*
X811102Y1088399D01*
X812517Y1090851D01*
X813250Y1093585D01*
Y1096415D01*
X812517Y1099149D01*
X811102Y1101601D01*
X809101Y1103602D01*
X806649Y1105017D01*
X803915Y1105750D01*
D02*
G37*
G36*
X748250D02*
X726750D01*
Y1084250D01*
X748250D01*
Y1105750D01*
D02*
G37*
G36*
X703915D02*
X701085D01*
X698351Y1105017D01*
X695899Y1103602D01*
X693898Y1101601D01*
X692483Y1099149D01*
X691750Y1096415D01*
Y1093585D01*
X692483Y1090851D01*
X693898Y1088399D01*
X695899Y1086398D01*
X698351Y1084983D01*
X701085Y1084250D01*
X703915D01*
X706649Y1084983D01*
X709101Y1086398D01*
X711102Y1088399D01*
X712517Y1090851D01*
X713250Y1093585D01*
Y1096415D01*
X712517Y1099149D01*
X711102Y1101601D01*
X709101Y1103602D01*
X706649Y1105017D01*
X703915Y1105750D01*
D02*
G37*
G36*
X648250D02*
X626750D01*
Y1084250D01*
X648250D01*
Y1105750D01*
D02*
G37*
G36*
X603915D02*
X601085D01*
X598351Y1105017D01*
X595899Y1103602D01*
X593898Y1101601D01*
X592483Y1099149D01*
X591750Y1096415D01*
Y1093585D01*
X592483Y1090851D01*
X593898Y1088399D01*
X595899Y1086398D01*
X598351Y1084983D01*
X601085Y1084250D01*
X603915D01*
X606649Y1084983D01*
X609101Y1086398D01*
X611102Y1088399D01*
X612517Y1090851D01*
X613250Y1093585D01*
Y1096415D01*
X612517Y1099149D01*
X611102Y1101601D01*
X609101Y1103602D01*
X606649Y1105017D01*
X603915Y1105750D01*
D02*
G37*
G36*
X548250D02*
X526750D01*
Y1084250D01*
X548250D01*
Y1105750D01*
D02*
G37*
G36*
X903915Y1060750D02*
X901085D01*
X898351Y1060017D01*
X895899Y1058602D01*
X893898Y1056601D01*
X892483Y1054149D01*
X891750Y1051415D01*
Y1048585D01*
X892352Y1046340D01*
X834888Y988877D01*
X833894Y987388D01*
X833544Y985632D01*
Y980069D01*
X833351Y980017D01*
X830899Y978602D01*
X828898Y976601D01*
X827483Y974149D01*
X826750Y971415D01*
Y968585D01*
X827483Y965851D01*
X828898Y963399D01*
X830899Y961398D01*
X833351Y959983D01*
X836085Y959250D01*
X838915D01*
X841649Y959983D01*
X844101Y961398D01*
X846102Y963399D01*
X847517Y965851D01*
X848250Y968585D01*
Y971415D01*
X847517Y974149D01*
X846102Y976601D01*
X844101Y978602D01*
X842721Y979399D01*
Y983732D01*
X898840Y1039852D01*
X901085Y1039250D01*
X903915D01*
X906649Y1039983D01*
X909101Y1041398D01*
X911102Y1043399D01*
X912517Y1045851D01*
X913250Y1048585D01*
Y1051415D01*
X912517Y1054149D01*
X911102Y1056601D01*
X909101Y1058602D01*
X906649Y1060017D01*
X903915Y1060750D01*
D02*
G37*
G36*
X838915D02*
X836085D01*
X833351Y1060017D01*
X830899Y1058602D01*
X828898Y1056601D01*
X827483Y1054149D01*
X826750Y1051415D01*
Y1048585D01*
X827483Y1045851D01*
X828898Y1043399D01*
X830899Y1041398D01*
X833351Y1039983D01*
X836085Y1039250D01*
X838915D01*
X841649Y1039983D01*
X844101Y1041398D01*
X846102Y1043399D01*
X847517Y1045851D01*
X848250Y1048585D01*
Y1051415D01*
X847517Y1054149D01*
X846102Y1056601D01*
X844101Y1058602D01*
X841649Y1060017D01*
X838915Y1060750D01*
D02*
G37*
G36*
X803915D02*
X801085D01*
X798351Y1060017D01*
X795899Y1058602D01*
X793898Y1056601D01*
X792483Y1054149D01*
X791750Y1051415D01*
Y1048585D01*
X792352Y1046340D01*
X734888Y988877D01*
X733894Y987388D01*
X733544Y985632D01*
Y980069D01*
X733351Y980017D01*
X730899Y978602D01*
X728898Y976601D01*
X727483Y974149D01*
X726750Y971415D01*
Y968585D01*
X727483Y965851D01*
X728898Y963399D01*
X730899Y961398D01*
X733351Y959983D01*
X736085Y959250D01*
X738915D01*
X741649Y959983D01*
X744101Y961398D01*
X746102Y963399D01*
X747517Y965851D01*
X748250Y968585D01*
Y971415D01*
X747517Y974149D01*
X746102Y976601D01*
X744101Y978602D01*
X742721Y979399D01*
Y983732D01*
X798840Y1039852D01*
X801085Y1039250D01*
X803915D01*
X806649Y1039983D01*
X809101Y1041398D01*
X811102Y1043399D01*
X812517Y1045851D01*
X813250Y1048585D01*
Y1051415D01*
X812517Y1054149D01*
X811102Y1056601D01*
X809101Y1058602D01*
X806649Y1060017D01*
X803915Y1060750D01*
D02*
G37*
G36*
X738915D02*
X736085D01*
X733351Y1060017D01*
X730899Y1058602D01*
X728898Y1056601D01*
X727483Y1054149D01*
X726750Y1051415D01*
Y1048585D01*
X727483Y1045851D01*
X728898Y1043399D01*
X730899Y1041398D01*
X733351Y1039983D01*
X736085Y1039250D01*
X738915D01*
X741649Y1039983D01*
X744101Y1041398D01*
X746102Y1043399D01*
X747517Y1045851D01*
X748250Y1048585D01*
Y1051415D01*
X747517Y1054149D01*
X746102Y1056601D01*
X744101Y1058602D01*
X741649Y1060017D01*
X738915Y1060750D01*
D02*
G37*
G36*
X703915D02*
X701085D01*
X698351Y1060017D01*
X695899Y1058602D01*
X693898Y1056601D01*
X692483Y1054149D01*
X691750Y1051415D01*
Y1048585D01*
X692352Y1046340D01*
X634888Y988877D01*
X633894Y987388D01*
X633544Y985632D01*
Y980069D01*
X633351Y980017D01*
X630899Y978602D01*
X628898Y976601D01*
X627483Y974149D01*
X626750Y971415D01*
Y968585D01*
X627483Y965851D01*
X628898Y963399D01*
X630899Y961398D01*
X633351Y959983D01*
X636085Y959250D01*
X638915D01*
X641649Y959983D01*
X644101Y961398D01*
X646102Y963399D01*
X647517Y965851D01*
X648250Y968585D01*
Y971415D01*
X647517Y974149D01*
X646102Y976601D01*
X644101Y978602D01*
X642721Y979399D01*
Y983732D01*
X698840Y1039852D01*
X701085Y1039250D01*
X703915D01*
X706649Y1039983D01*
X709101Y1041398D01*
X711102Y1043399D01*
X712517Y1045851D01*
X713250Y1048585D01*
Y1051415D01*
X712517Y1054149D01*
X711102Y1056601D01*
X709101Y1058602D01*
X706649Y1060017D01*
X703915Y1060750D01*
D02*
G37*
G36*
X638915D02*
X636085D01*
X633351Y1060017D01*
X630899Y1058602D01*
X628898Y1056601D01*
X627483Y1054149D01*
X626750Y1051415D01*
Y1048585D01*
X627483Y1045851D01*
X628898Y1043399D01*
X630899Y1041398D01*
X633351Y1039983D01*
X636085Y1039250D01*
X638915D01*
X641649Y1039983D01*
X644101Y1041398D01*
X646102Y1043399D01*
X647517Y1045851D01*
X648250Y1048585D01*
Y1051415D01*
X647517Y1054149D01*
X646102Y1056601D01*
X644101Y1058602D01*
X641649Y1060017D01*
X638915Y1060750D01*
D02*
G37*
G36*
X603915D02*
X601085D01*
X598351Y1060017D01*
X595899Y1058602D01*
X593898Y1056601D01*
X592483Y1054149D01*
X591750Y1051415D01*
Y1048585D01*
X592351Y1046340D01*
X534888Y988877D01*
X533894Y987388D01*
X533544Y985632D01*
Y980069D01*
X533351Y980017D01*
X530899Y978602D01*
X528898Y976601D01*
X527483Y974149D01*
X526750Y971415D01*
Y968585D01*
X527483Y965851D01*
X528898Y963399D01*
X530899Y961398D01*
X533351Y959983D01*
X536085Y959250D01*
X538915D01*
X541649Y959983D01*
X544101Y961398D01*
X546102Y963399D01*
X547517Y965851D01*
X548250Y968585D01*
Y971415D01*
X547517Y974149D01*
X546102Y976601D01*
X544101Y978602D01*
X542721Y979399D01*
Y983732D01*
X598840Y1039852D01*
X601085Y1039250D01*
X603915D01*
X606649Y1039983D01*
X609101Y1041398D01*
X611102Y1043399D01*
X612517Y1045851D01*
X613250Y1048585D01*
Y1051415D01*
X612517Y1054149D01*
X611102Y1056601D01*
X609101Y1058602D01*
X606649Y1060017D01*
X603915Y1060750D01*
D02*
G37*
G36*
X538915D02*
X536085D01*
X533351Y1060017D01*
X530899Y1058602D01*
X528898Y1056601D01*
X527483Y1054149D01*
X526750Y1051415D01*
Y1048585D01*
X527483Y1045851D01*
X528898Y1043399D01*
X530899Y1041398D01*
X533351Y1039983D01*
X536085Y1039250D01*
X538915D01*
X541649Y1039983D01*
X544101Y1041398D01*
X546102Y1043399D01*
X547517Y1045851D01*
X548250Y1048585D01*
Y1051415D01*
X547517Y1054149D01*
X546102Y1056601D01*
X544101Y1058602D01*
X541649Y1060017D01*
X538915Y1060750D01*
D02*
G37*
G36*
X903915Y1025750D02*
X901085D01*
X898351Y1025017D01*
X895899Y1023602D01*
X893898Y1021601D01*
X892483Y1019149D01*
X891750Y1016415D01*
Y1013585D01*
X892483Y1010851D01*
X893898Y1008399D01*
X895899Y1006398D01*
X898351Y1004983D01*
X901085Y1004250D01*
X903915D01*
X906649Y1004983D01*
X909101Y1006398D01*
X911102Y1008399D01*
X912517Y1010851D01*
X913250Y1013585D01*
Y1016415D01*
X912517Y1019149D01*
X911102Y1021601D01*
X909101Y1023602D01*
X906649Y1025017D01*
X903915Y1025750D01*
D02*
G37*
G36*
X848250D02*
X826750D01*
Y1004250D01*
X848250D01*
Y1025750D01*
D02*
G37*
G36*
X803915D02*
X801085D01*
X798351Y1025017D01*
X795899Y1023602D01*
X793898Y1021601D01*
X792483Y1019149D01*
X791750Y1016415D01*
Y1013585D01*
X792483Y1010851D01*
X793898Y1008399D01*
X795899Y1006398D01*
X798351Y1004983D01*
X801085Y1004250D01*
X803915D01*
X806649Y1004983D01*
X809101Y1006398D01*
X811102Y1008399D01*
X812517Y1010851D01*
X813250Y1013585D01*
Y1016415D01*
X812517Y1019149D01*
X811102Y1021601D01*
X809101Y1023602D01*
X806649Y1025017D01*
X803915Y1025750D01*
D02*
G37*
G36*
X748250D02*
X726750D01*
Y1004250D01*
X748250D01*
Y1025750D01*
D02*
G37*
G36*
X703915D02*
X701085D01*
X698351Y1025017D01*
X695899Y1023602D01*
X693898Y1021601D01*
X692483Y1019149D01*
X691750Y1016415D01*
Y1013585D01*
X692483Y1010851D01*
X693898Y1008399D01*
X695899Y1006398D01*
X698351Y1004983D01*
X701085Y1004250D01*
X703915D01*
X706649Y1004983D01*
X709101Y1006398D01*
X711102Y1008399D01*
X712517Y1010851D01*
X713250Y1013585D01*
Y1016415D01*
X712517Y1019149D01*
X711102Y1021601D01*
X709101Y1023602D01*
X706649Y1025017D01*
X703915Y1025750D01*
D02*
G37*
G36*
X648250D02*
X626750D01*
Y1004250D01*
X648250D01*
Y1025750D01*
D02*
G37*
G36*
X603915D02*
X601085D01*
X598351Y1025017D01*
X595899Y1023602D01*
X593898Y1021601D01*
X592483Y1019149D01*
X591750Y1016415D01*
Y1013585D01*
X592483Y1010851D01*
X593898Y1008399D01*
X595899Y1006398D01*
X598351Y1004983D01*
X601085Y1004250D01*
X603915D01*
X606649Y1004983D01*
X609101Y1006398D01*
X611102Y1008399D01*
X612517Y1010851D01*
X613250Y1013585D01*
Y1016415D01*
X612517Y1019149D01*
X611102Y1021601D01*
X609101Y1023602D01*
X606649Y1025017D01*
X603915Y1025750D01*
D02*
G37*
G36*
X548250D02*
X526750D01*
Y1004250D01*
X548250D01*
Y1025750D01*
D02*
G37*
G36*
X965500Y1024600D02*
X944500D01*
Y1003600D01*
X965500D01*
Y1024600D01*
D02*
G37*
G36*
X956382Y999200D02*
X953618D01*
X950947Y998484D01*
X948553Y997102D01*
X946598Y995147D01*
X945216Y992753D01*
X944500Y990082D01*
Y987318D01*
X945216Y984647D01*
X946598Y982253D01*
X948553Y980298D01*
X950947Y978916D01*
X953618Y978200D01*
X956382D01*
X959053Y978916D01*
X961447Y980298D01*
X963402Y982253D01*
X964784Y984647D01*
X965500Y987318D01*
Y990082D01*
X964784Y992753D01*
X963402Y995147D01*
X961447Y997102D01*
X959053Y998484D01*
X956382Y999200D01*
D02*
G37*
G36*
X903915Y980750D02*
X901085D01*
X898351Y980017D01*
X895899Y978602D01*
X893898Y976601D01*
X892483Y974149D01*
X891750Y971415D01*
Y968585D01*
X892352Y966340D01*
X834888Y908877D01*
X833894Y907388D01*
X833544Y905632D01*
Y900069D01*
X833351Y900017D01*
X830899Y898602D01*
X828898Y896601D01*
X827483Y894149D01*
X826750Y891415D01*
Y888585D01*
X827483Y885851D01*
X828898Y883399D01*
X830899Y881398D01*
X833351Y879983D01*
X836085Y879250D01*
X838915D01*
X841649Y879983D01*
X844101Y881398D01*
X846102Y883399D01*
X847517Y885851D01*
X848250Y888585D01*
Y891415D01*
X847517Y894149D01*
X846102Y896601D01*
X844101Y898602D01*
X842721Y899399D01*
Y903732D01*
X898840Y959852D01*
X901085Y959250D01*
X903915D01*
X906649Y959983D01*
X909101Y961398D01*
X911102Y963399D01*
X912517Y965851D01*
X913250Y968585D01*
Y971415D01*
X912517Y974149D01*
X911102Y976601D01*
X909101Y978602D01*
X906649Y980017D01*
X903915Y980750D01*
D02*
G37*
G36*
X803915D02*
X801085D01*
X798351Y980017D01*
X795899Y978602D01*
X793898Y976601D01*
X792483Y974149D01*
X791750Y971415D01*
Y968585D01*
X792352Y966340D01*
X734888Y908877D01*
X733894Y907388D01*
X733544Y905632D01*
Y900069D01*
X733351Y900017D01*
X730899Y898602D01*
X728898Y896601D01*
X727483Y894149D01*
X726750Y891415D01*
Y888585D01*
X727483Y885851D01*
X728898Y883399D01*
X730899Y881398D01*
X733351Y879983D01*
X736085Y879250D01*
X738915D01*
X741649Y879983D01*
X744101Y881398D01*
X746102Y883399D01*
X747517Y885851D01*
X748250Y888585D01*
Y891415D01*
X747517Y894149D01*
X746102Y896601D01*
X744101Y898602D01*
X742721Y899399D01*
Y903732D01*
X798840Y959852D01*
X801085Y959250D01*
X803915D01*
X806649Y959983D01*
X809101Y961398D01*
X811102Y963399D01*
X812517Y965851D01*
X813250Y968585D01*
Y971415D01*
X812517Y974149D01*
X811102Y976601D01*
X809101Y978602D01*
X806649Y980017D01*
X803915Y980750D01*
D02*
G37*
G36*
X703915D02*
X701085D01*
X698351Y980017D01*
X695899Y978602D01*
X693898Y976601D01*
X692483Y974149D01*
X691750Y971415D01*
Y968585D01*
X692352Y966340D01*
X634888Y908877D01*
X633894Y907388D01*
X633544Y905632D01*
Y900069D01*
X633351Y900017D01*
X630899Y898602D01*
X628898Y896601D01*
X627483Y894149D01*
X626750Y891415D01*
Y888585D01*
X627483Y885851D01*
X628898Y883399D01*
X630899Y881398D01*
X633351Y879983D01*
X636085Y879250D01*
X638915D01*
X641649Y879983D01*
X644101Y881398D01*
X646102Y883399D01*
X647517Y885851D01*
X648250Y888585D01*
Y891415D01*
X647517Y894149D01*
X646102Y896601D01*
X644101Y898602D01*
X642721Y899399D01*
Y903732D01*
X698840Y959852D01*
X701085Y959250D01*
X703915D01*
X706649Y959983D01*
X709101Y961398D01*
X711102Y963399D01*
X712517Y965851D01*
X713250Y968585D01*
Y971415D01*
X712517Y974149D01*
X711102Y976601D01*
X709101Y978602D01*
X706649Y980017D01*
X703915Y980750D01*
D02*
G37*
G36*
X603915D02*
X601085D01*
X598351Y980017D01*
X595899Y978602D01*
X593898Y976601D01*
X592483Y974149D01*
X591750Y971415D01*
Y968585D01*
X592351Y966340D01*
X534888Y908877D01*
X533894Y907388D01*
X533544Y905632D01*
Y900069D01*
X533351Y900017D01*
X530899Y898602D01*
X528898Y896601D01*
X527483Y894149D01*
X526750Y891415D01*
Y888585D01*
X527483Y885851D01*
X528898Y883399D01*
X530899Y881398D01*
X533351Y879983D01*
X536085Y879250D01*
X538915D01*
X541649Y879983D01*
X544101Y881398D01*
X546102Y883399D01*
X547517Y885851D01*
X548250Y888585D01*
Y891415D01*
X547517Y894149D01*
X546102Y896601D01*
X544101Y898602D01*
X542721Y899399D01*
Y903732D01*
X598840Y959852D01*
X601085Y959250D01*
X603915D01*
X606649Y959983D01*
X609101Y961398D01*
X611102Y963399D01*
X612517Y965851D01*
X613250Y968585D01*
Y971415D01*
X612517Y974149D01*
X611102Y976601D01*
X609101Y978602D01*
X606649Y980017D01*
X603915Y980750D01*
D02*
G37*
G36*
X956382Y973800D02*
X953618D01*
X950947Y973084D01*
X948553Y971702D01*
X946598Y969747D01*
X945216Y967353D01*
X944500Y964682D01*
Y961918D01*
X945216Y959247D01*
X946598Y956853D01*
X948553Y954898D01*
X950947Y953516D01*
X953618Y952800D01*
X956382D01*
X959053Y953516D01*
X961447Y954898D01*
X963402Y956853D01*
X964784Y959247D01*
X965500Y961918D01*
Y964682D01*
X964784Y967353D01*
X963402Y969747D01*
X961447Y971702D01*
X959053Y973084D01*
X956382Y973800D01*
D02*
G37*
G36*
Y948400D02*
X953618D01*
X950947Y947684D01*
X948553Y946302D01*
X946598Y944347D01*
X945216Y941953D01*
X944500Y939282D01*
Y936518D01*
X945216Y933847D01*
X946598Y931453D01*
X948553Y929498D01*
X950947Y928116D01*
X953618Y927400D01*
X956382D01*
X959053Y928116D01*
X961447Y929498D01*
X963402Y931453D01*
X964784Y933847D01*
X965500Y936518D01*
Y939282D01*
X964784Y941953D01*
X963402Y944347D01*
X961447Y946302D01*
X959053Y947684D01*
X956382Y948400D01*
D02*
G37*
G36*
X903915Y945750D02*
X901085D01*
X898351Y945017D01*
X895899Y943602D01*
X893898Y941601D01*
X892483Y939149D01*
X891750Y936415D01*
Y933585D01*
X892483Y930851D01*
X893898Y928399D01*
X895899Y926398D01*
X898351Y924983D01*
X901085Y924250D01*
X903915D01*
X906649Y924983D01*
X909101Y926398D01*
X911102Y928399D01*
X912517Y930851D01*
X913250Y933585D01*
Y936415D01*
X912517Y939149D01*
X911102Y941601D01*
X909101Y943602D01*
X906649Y945017D01*
X903915Y945750D01*
D02*
G37*
G36*
X848250D02*
X826750D01*
Y924250D01*
X848250D01*
Y945750D01*
D02*
G37*
G36*
X803915D02*
X801085D01*
X798351Y945017D01*
X795899Y943602D01*
X793898Y941601D01*
X792483Y939149D01*
X791750Y936415D01*
Y933585D01*
X792483Y930851D01*
X793898Y928399D01*
X795899Y926398D01*
X798351Y924983D01*
X801085Y924250D01*
X803915D01*
X806649Y924983D01*
X809101Y926398D01*
X811102Y928399D01*
X812517Y930851D01*
X813250Y933585D01*
Y936415D01*
X812517Y939149D01*
X811102Y941601D01*
X809101Y943602D01*
X806649Y945017D01*
X803915Y945750D01*
D02*
G37*
G36*
X748250D02*
X726750D01*
Y924250D01*
X748250D01*
Y945750D01*
D02*
G37*
G36*
X703915D02*
X701085D01*
X698351Y945017D01*
X695899Y943602D01*
X693898Y941601D01*
X692483Y939149D01*
X691750Y936415D01*
Y933585D01*
X692483Y930851D01*
X693898Y928399D01*
X695899Y926398D01*
X698351Y924983D01*
X701085Y924250D01*
X703915D01*
X706649Y924983D01*
X709101Y926398D01*
X711102Y928399D01*
X712517Y930851D01*
X713250Y933585D01*
Y936415D01*
X712517Y939149D01*
X711102Y941601D01*
X709101Y943602D01*
X706649Y945017D01*
X703915Y945750D01*
D02*
G37*
G36*
X648250D02*
X626750D01*
Y924250D01*
X648250D01*
Y945750D01*
D02*
G37*
G36*
X603915D02*
X601085D01*
X598351Y945017D01*
X595899Y943602D01*
X593898Y941601D01*
X592483Y939149D01*
X591750Y936415D01*
Y933585D01*
X592483Y930851D01*
X593898Y928399D01*
X595899Y926398D01*
X598351Y924983D01*
X601085Y924250D01*
X603915D01*
X606649Y924983D01*
X609101Y926398D01*
X611102Y928399D01*
X612517Y930851D01*
X613250Y933585D01*
Y936415D01*
X612517Y939149D01*
X611102Y941601D01*
X609101Y943602D01*
X606649Y945017D01*
X603915Y945750D01*
D02*
G37*
G36*
X548250D02*
X526750D01*
Y924250D01*
X548250D01*
Y945750D01*
D02*
G37*
G36*
X956382Y923000D02*
X953618D01*
X950947Y922284D01*
X948553Y920902D01*
X946598Y918947D01*
X945216Y916553D01*
X944500Y913882D01*
Y911118D01*
X945216Y908447D01*
X946598Y906053D01*
X948553Y904098D01*
X950947Y902716D01*
X953618Y902000D01*
X956382D01*
X959053Y902716D01*
X961447Y904098D01*
X963402Y906053D01*
X964784Y908447D01*
X965500Y911118D01*
Y913882D01*
X964784Y916553D01*
X963402Y918947D01*
X961447Y920902D01*
X959053Y922284D01*
X956382Y923000D01*
D02*
G37*
G36*
X903915Y900750D02*
X901085D01*
X898351Y900017D01*
X895899Y898602D01*
X893898Y896601D01*
X892483Y894149D01*
X891750Y891415D01*
Y888585D01*
X892352Y886340D01*
X834888Y828877D01*
X833894Y827388D01*
X833544Y825632D01*
Y820069D01*
X833351Y820017D01*
X830899Y818602D01*
X828898Y816601D01*
X827483Y814149D01*
X826750Y811415D01*
Y808585D01*
X827483Y805851D01*
X828898Y803399D01*
X830899Y801398D01*
X833351Y799983D01*
X836085Y799250D01*
X838915D01*
X841649Y799983D01*
X844101Y801398D01*
X846102Y803399D01*
X847517Y805851D01*
X848250Y808585D01*
Y811415D01*
X847517Y814149D01*
X846102Y816601D01*
X844101Y818602D01*
X842721Y819399D01*
Y823732D01*
X898840Y879852D01*
X901085Y879250D01*
X903915D01*
X906649Y879983D01*
X909101Y881398D01*
X911102Y883399D01*
X912517Y885851D01*
X913250Y888585D01*
Y891415D01*
X912517Y894149D01*
X911102Y896601D01*
X909101Y898602D01*
X906649Y900017D01*
X903915Y900750D01*
D02*
G37*
G36*
X803915D02*
X801085D01*
X798351Y900017D01*
X795899Y898602D01*
X793898Y896601D01*
X792483Y894149D01*
X791750Y891415D01*
Y888585D01*
X792352Y886340D01*
X734888Y828877D01*
X733894Y827388D01*
X733544Y825632D01*
Y820069D01*
X733351Y820017D01*
X730899Y818602D01*
X728898Y816601D01*
X727483Y814149D01*
X726750Y811415D01*
Y808585D01*
X727483Y805851D01*
X728898Y803399D01*
X730899Y801398D01*
X733351Y799983D01*
X736085Y799250D01*
X738915D01*
X741649Y799983D01*
X744101Y801398D01*
X746102Y803399D01*
X747517Y805851D01*
X748250Y808585D01*
Y811415D01*
X747517Y814149D01*
X746102Y816601D01*
X744101Y818602D01*
X742721Y819399D01*
Y823732D01*
X798840Y879852D01*
X801085Y879250D01*
X803915D01*
X806649Y879983D01*
X809101Y881398D01*
X811102Y883399D01*
X812517Y885851D01*
X813250Y888585D01*
Y891415D01*
X812517Y894149D01*
X811102Y896601D01*
X809101Y898602D01*
X806649Y900017D01*
X803915Y900750D01*
D02*
G37*
G36*
X703915D02*
X701085D01*
X698351Y900017D01*
X695899Y898602D01*
X693898Y896601D01*
X692483Y894149D01*
X691750Y891415D01*
Y888585D01*
X692352Y886340D01*
X634888Y828877D01*
X633894Y827388D01*
X633544Y825632D01*
Y820069D01*
X633351Y820017D01*
X630899Y818602D01*
X628898Y816601D01*
X627483Y814149D01*
X626750Y811415D01*
Y808585D01*
X627483Y805851D01*
X628898Y803399D01*
X630899Y801398D01*
X633351Y799983D01*
X636085Y799250D01*
X638915D01*
X641649Y799983D01*
X644101Y801398D01*
X646102Y803399D01*
X647517Y805851D01*
X648250Y808585D01*
Y811415D01*
X647517Y814149D01*
X646102Y816601D01*
X644101Y818602D01*
X642721Y819399D01*
Y823732D01*
X698840Y879852D01*
X701085Y879250D01*
X703915D01*
X706649Y879983D01*
X709101Y881398D01*
X711102Y883399D01*
X712517Y885851D01*
X713250Y888585D01*
Y891415D01*
X712517Y894149D01*
X711102Y896601D01*
X709101Y898602D01*
X706649Y900017D01*
X703915Y900750D01*
D02*
G37*
G36*
X603915D02*
X601085D01*
X598351Y900017D01*
X595899Y898602D01*
X593898Y896601D01*
X592483Y894149D01*
X591750Y891415D01*
Y888585D01*
X592351Y886340D01*
X534888Y828877D01*
X533894Y827388D01*
X533544Y825632D01*
Y820069D01*
X533351Y820017D01*
X530899Y818602D01*
X528898Y816601D01*
X527483Y814149D01*
X526750Y811415D01*
Y808585D01*
X527483Y805851D01*
X528898Y803399D01*
X530899Y801398D01*
X533351Y799983D01*
X536085Y799250D01*
X538915D01*
X541649Y799983D01*
X544101Y801398D01*
X546102Y803399D01*
X547517Y805851D01*
X548250Y808585D01*
Y811415D01*
X547517Y814149D01*
X546102Y816601D01*
X544101Y818602D01*
X542721Y819399D01*
Y823732D01*
X598840Y879852D01*
X601085Y879250D01*
X603915D01*
X606649Y879983D01*
X609101Y881398D01*
X611102Y883399D01*
X612517Y885851D01*
X613250Y888585D01*
Y891415D01*
X612517Y894149D01*
X611102Y896601D01*
X609101Y898602D01*
X606649Y900017D01*
X603915Y900750D01*
D02*
G37*
G36*
X956382Y897600D02*
X953618D01*
X950947Y896884D01*
X948553Y895502D01*
X946598Y893547D01*
X945216Y891153D01*
X944500Y888482D01*
Y885718D01*
X945216Y883047D01*
X946598Y880653D01*
X948553Y878698D01*
X950947Y877316D01*
X953618Y876600D01*
X956382D01*
X959053Y877316D01*
X961447Y878698D01*
X963402Y880653D01*
X964784Y883047D01*
X965500Y885718D01*
Y888482D01*
X964784Y891153D01*
X963402Y893547D01*
X961447Y895502D01*
X959053Y896884D01*
X956382Y897600D01*
D02*
G37*
G36*
Y872200D02*
X953618D01*
X950947Y871484D01*
X948553Y870102D01*
X946598Y868147D01*
X945216Y865753D01*
X944500Y863082D01*
Y860318D01*
X945216Y857647D01*
X946598Y855253D01*
X948553Y853298D01*
X950947Y851916D01*
X953618Y851200D01*
X956382D01*
X959053Y851916D01*
X961447Y853298D01*
X963402Y855253D01*
X964784Y857647D01*
X965500Y860318D01*
Y863082D01*
X964784Y865753D01*
X963402Y868147D01*
X961447Y870102D01*
X959053Y871484D01*
X956382Y872200D01*
D02*
G37*
G36*
X903915Y865750D02*
X901085D01*
X898351Y865017D01*
X895899Y863602D01*
X893898Y861601D01*
X892483Y859149D01*
X891750Y856415D01*
Y853585D01*
X892483Y850851D01*
X893898Y848399D01*
X895899Y846398D01*
X898351Y844983D01*
X901085Y844250D01*
X903915D01*
X906649Y844983D01*
X909101Y846398D01*
X911102Y848399D01*
X912517Y850851D01*
X913250Y853585D01*
Y856415D01*
X912517Y859149D01*
X911102Y861601D01*
X909101Y863602D01*
X906649Y865017D01*
X903915Y865750D01*
D02*
G37*
G36*
X848250D02*
X826750D01*
Y844250D01*
X848250D01*
Y865750D01*
D02*
G37*
G36*
X803915D02*
X801085D01*
X798351Y865017D01*
X795899Y863602D01*
X793898Y861601D01*
X792483Y859149D01*
X791750Y856415D01*
Y853585D01*
X792483Y850851D01*
X793898Y848399D01*
X795899Y846398D01*
X798351Y844983D01*
X801085Y844250D01*
X803915D01*
X806649Y844983D01*
X809101Y846398D01*
X811102Y848399D01*
X812517Y850851D01*
X813250Y853585D01*
Y856415D01*
X812517Y859149D01*
X811102Y861601D01*
X809101Y863602D01*
X806649Y865017D01*
X803915Y865750D01*
D02*
G37*
G36*
X748250D02*
X726750D01*
Y844250D01*
X748250D01*
Y865750D01*
D02*
G37*
G36*
X703915D02*
X701085D01*
X698351Y865017D01*
X695899Y863602D01*
X693898Y861601D01*
X692483Y859149D01*
X691750Y856415D01*
Y853585D01*
X692483Y850851D01*
X693898Y848399D01*
X695899Y846398D01*
X698351Y844983D01*
X701085Y844250D01*
X703915D01*
X706649Y844983D01*
X709101Y846398D01*
X711102Y848399D01*
X712517Y850851D01*
X713250Y853585D01*
Y856415D01*
X712517Y859149D01*
X711102Y861601D01*
X709101Y863602D01*
X706649Y865017D01*
X703915Y865750D01*
D02*
G37*
G36*
X648250D02*
X626750D01*
Y844250D01*
X648250D01*
Y865750D01*
D02*
G37*
G36*
X603915D02*
X601085D01*
X598351Y865017D01*
X595899Y863602D01*
X593898Y861601D01*
X592483Y859149D01*
X591750Y856415D01*
Y853585D01*
X592483Y850851D01*
X593898Y848399D01*
X595899Y846398D01*
X598351Y844983D01*
X601085Y844250D01*
X603915D01*
X606649Y844983D01*
X609101Y846398D01*
X611102Y848399D01*
X612517Y850851D01*
X613250Y853585D01*
Y856415D01*
X612517Y859149D01*
X611102Y861601D01*
X609101Y863602D01*
X606649Y865017D01*
X603915Y865750D01*
D02*
G37*
G36*
X548250D02*
X526750D01*
Y844250D01*
X548250D01*
Y865750D01*
D02*
G37*
G36*
X956382Y846800D02*
X953618D01*
X950947Y846084D01*
X948553Y844702D01*
X946598Y842747D01*
X945216Y840353D01*
X944500Y837682D01*
Y834918D01*
X945216Y832247D01*
X946598Y829853D01*
X948553Y827898D01*
X950947Y826516D01*
X953618Y825800D01*
X956382D01*
X959053Y826516D01*
X961447Y827898D01*
X963402Y829853D01*
X964784Y832247D01*
X965500Y834918D01*
Y837682D01*
X964784Y840353D01*
X963402Y842747D01*
X961447Y844702D01*
X959053Y846084D01*
X956382Y846800D01*
D02*
G37*
G36*
X903915Y820750D02*
X901085D01*
X898351Y820017D01*
X895899Y818602D01*
X893898Y816601D01*
X892483Y814149D01*
X891750Y811415D01*
Y808585D01*
X892352Y806340D01*
X834888Y748877D01*
X833894Y747388D01*
X833544Y745632D01*
Y740069D01*
X833351Y740017D01*
X830899Y738602D01*
X828898Y736601D01*
X827483Y734149D01*
X826750Y731415D01*
Y728585D01*
X827483Y725851D01*
X828898Y723399D01*
X830899Y721398D01*
X833351Y719983D01*
X836085Y719250D01*
X838915D01*
X841649Y719983D01*
X844101Y721398D01*
X846102Y723399D01*
X847517Y725851D01*
X848250Y728585D01*
Y731415D01*
X847517Y734149D01*
X846102Y736601D01*
X844101Y738602D01*
X842721Y739399D01*
Y743732D01*
X898840Y799852D01*
X901085Y799250D01*
X903915D01*
X906649Y799983D01*
X909101Y801398D01*
X911102Y803399D01*
X912517Y805851D01*
X913250Y808585D01*
Y811415D01*
X912517Y814149D01*
X911102Y816601D01*
X909101Y818602D01*
X906649Y820017D01*
X903915Y820750D01*
D02*
G37*
G36*
X803915D02*
X801085D01*
X798351Y820017D01*
X795899Y818602D01*
X793898Y816601D01*
X792483Y814149D01*
X791750Y811415D01*
Y808585D01*
X792352Y806340D01*
X734888Y748877D01*
X733894Y747388D01*
X733544Y745632D01*
Y740069D01*
X733351Y740017D01*
X730899Y738602D01*
X728898Y736601D01*
X727483Y734149D01*
X726750Y731415D01*
Y728585D01*
X727483Y725851D01*
X728898Y723399D01*
X730899Y721398D01*
X733351Y719983D01*
X736085Y719250D01*
X738915D01*
X741649Y719983D01*
X744101Y721398D01*
X746102Y723399D01*
X747517Y725851D01*
X748250Y728585D01*
Y731415D01*
X747517Y734149D01*
X746102Y736601D01*
X744101Y738602D01*
X742721Y739399D01*
Y743732D01*
X798840Y799852D01*
X801085Y799250D01*
X803915D01*
X806649Y799983D01*
X809101Y801398D01*
X811102Y803399D01*
X812517Y805851D01*
X813250Y808585D01*
Y811415D01*
X812517Y814149D01*
X811102Y816601D01*
X809101Y818602D01*
X806649Y820017D01*
X803915Y820750D01*
D02*
G37*
G36*
X703915D02*
X701085D01*
X698351Y820017D01*
X695899Y818602D01*
X693898Y816601D01*
X692483Y814149D01*
X691750Y811415D01*
Y808585D01*
X692352Y806340D01*
X634888Y748877D01*
X633894Y747388D01*
X633544Y745632D01*
Y740069D01*
X633351Y740017D01*
X630899Y738602D01*
X628898Y736601D01*
X627483Y734149D01*
X626750Y731415D01*
Y728585D01*
X627483Y725851D01*
X628898Y723399D01*
X630899Y721398D01*
X633351Y719983D01*
X636085Y719250D01*
X638915D01*
X641649Y719983D01*
X644101Y721398D01*
X646102Y723399D01*
X647517Y725851D01*
X648250Y728585D01*
Y731415D01*
X647517Y734149D01*
X646102Y736601D01*
X644101Y738602D01*
X642721Y739399D01*
Y743732D01*
X698840Y799852D01*
X701085Y799250D01*
X703915D01*
X706649Y799983D01*
X709101Y801398D01*
X711102Y803399D01*
X712517Y805851D01*
X713250Y808585D01*
Y811415D01*
X712517Y814149D01*
X711102Y816601D01*
X709101Y818602D01*
X706649Y820017D01*
X703915Y820750D01*
D02*
G37*
G36*
X603915D02*
X601085D01*
X598351Y820017D01*
X595899Y818602D01*
X593898Y816601D01*
X592483Y814149D01*
X591750Y811415D01*
Y808585D01*
X592351Y806340D01*
X534888Y748877D01*
X533894Y747388D01*
X533544Y745632D01*
Y740069D01*
X533351Y740017D01*
X530899Y738602D01*
X528898Y736601D01*
X527483Y734149D01*
X526750Y731415D01*
Y728585D01*
X527483Y725851D01*
X528898Y723399D01*
X530899Y721398D01*
X533351Y719983D01*
X536085Y719250D01*
X538915D01*
X541649Y719983D01*
X544101Y721398D01*
X546102Y723399D01*
X547517Y725851D01*
X548250Y728585D01*
Y731415D01*
X547517Y734149D01*
X546102Y736601D01*
X544101Y738602D01*
X542721Y739399D01*
Y743732D01*
X598840Y799852D01*
X601085Y799250D01*
X603915D01*
X606649Y799983D01*
X609101Y801398D01*
X611102Y803399D01*
X612517Y805851D01*
X613250Y808585D01*
Y811415D01*
X612517Y814149D01*
X611102Y816601D01*
X609101Y818602D01*
X606649Y820017D01*
X603915Y820750D01*
D02*
G37*
G36*
X903915Y785750D02*
X901085D01*
X898351Y785017D01*
X895899Y783602D01*
X893898Y781601D01*
X892483Y779149D01*
X891750Y776415D01*
Y773585D01*
X892483Y770851D01*
X893898Y768399D01*
X895899Y766398D01*
X898351Y764983D01*
X901085Y764250D01*
X903915D01*
X906649Y764983D01*
X909101Y766398D01*
X911102Y768399D01*
X912517Y770851D01*
X913250Y773585D01*
Y776415D01*
X912517Y779149D01*
X911102Y781601D01*
X909101Y783602D01*
X906649Y785017D01*
X903915Y785750D01*
D02*
G37*
G36*
X848250D02*
X826750D01*
Y764250D01*
X848250D01*
Y785750D01*
D02*
G37*
G36*
X803915D02*
X801085D01*
X798351Y785017D01*
X795899Y783602D01*
X793898Y781601D01*
X792483Y779149D01*
X791750Y776415D01*
Y773585D01*
X792483Y770851D01*
X793898Y768399D01*
X795899Y766398D01*
X798351Y764983D01*
X801085Y764250D01*
X803915D01*
X806649Y764983D01*
X809101Y766398D01*
X811102Y768399D01*
X812517Y770851D01*
X813250Y773585D01*
Y776415D01*
X812517Y779149D01*
X811102Y781601D01*
X809101Y783602D01*
X806649Y785017D01*
X803915Y785750D01*
D02*
G37*
G36*
X748250D02*
X726750D01*
Y764250D01*
X748250D01*
Y785750D01*
D02*
G37*
G36*
X703915D02*
X701085D01*
X698351Y785017D01*
X695899Y783602D01*
X693898Y781601D01*
X692483Y779149D01*
X691750Y776415D01*
Y773585D01*
X692483Y770851D01*
X693898Y768399D01*
X695899Y766398D01*
X698351Y764983D01*
X701085Y764250D01*
X703915D01*
X706649Y764983D01*
X709101Y766398D01*
X711102Y768399D01*
X712517Y770851D01*
X713250Y773585D01*
Y776415D01*
X712517Y779149D01*
X711102Y781601D01*
X709101Y783602D01*
X706649Y785017D01*
X703915Y785750D01*
D02*
G37*
G36*
X648250D02*
X626750D01*
Y764250D01*
X648250D01*
Y785750D01*
D02*
G37*
G36*
X603915D02*
X601085D01*
X598351Y785017D01*
X595899Y783602D01*
X593898Y781601D01*
X592483Y779149D01*
X591750Y776415D01*
Y773585D01*
X592483Y770851D01*
X593898Y768399D01*
X595899Y766398D01*
X598351Y764983D01*
X601085Y764250D01*
X603915D01*
X606649Y764983D01*
X609101Y766398D01*
X611102Y768399D01*
X612517Y770851D01*
X613250Y773585D01*
Y776415D01*
X612517Y779149D01*
X611102Y781601D01*
X609101Y783602D01*
X606649Y785017D01*
X603915Y785750D01*
D02*
G37*
G36*
X548250D02*
X526750D01*
Y764250D01*
X548250D01*
Y785750D01*
D02*
G37*
G36*
X903915Y740750D02*
X901085D01*
X898351Y740017D01*
X895899Y738602D01*
X893898Y736601D01*
X892483Y734149D01*
X891750Y731415D01*
Y728585D01*
X892483Y725851D01*
X893898Y723399D01*
X895899Y721398D01*
X898351Y719983D01*
X901085Y719250D01*
X903915D01*
X906649Y719983D01*
X909101Y721398D01*
X911102Y723399D01*
X912517Y725851D01*
X913250Y728585D01*
Y731415D01*
X912517Y734149D01*
X911102Y736601D01*
X909101Y738602D01*
X906649Y740017D01*
X903915Y740750D01*
D02*
G37*
G36*
X803915D02*
X801085D01*
X798351Y740017D01*
X795899Y738602D01*
X793898Y736601D01*
X792483Y734149D01*
X791750Y731415D01*
Y728585D01*
X792483Y725851D01*
X793898Y723399D01*
X795899Y721398D01*
X798351Y719983D01*
X801085Y719250D01*
X803915D01*
X806649Y719983D01*
X809101Y721398D01*
X811102Y723399D01*
X812517Y725851D01*
X813250Y728585D01*
Y731415D01*
X812517Y734149D01*
X811102Y736601D01*
X809101Y738602D01*
X806649Y740017D01*
X803915Y740750D01*
D02*
G37*
G36*
X703915D02*
X701085D01*
X698351Y740017D01*
X695899Y738602D01*
X693898Y736601D01*
X692483Y734149D01*
X691750Y731415D01*
Y728585D01*
X692483Y725851D01*
X693898Y723399D01*
X695899Y721398D01*
X698351Y719983D01*
X701085Y719250D01*
X703915D01*
X706649Y719983D01*
X709101Y721398D01*
X711102Y723399D01*
X712517Y725851D01*
X713250Y728585D01*
Y731415D01*
X712517Y734149D01*
X711102Y736601D01*
X709101Y738602D01*
X706649Y740017D01*
X703915Y740750D01*
D02*
G37*
G36*
X603915D02*
X601085D01*
X598351Y740017D01*
X595899Y738602D01*
X593898Y736601D01*
X592483Y734149D01*
X591750Y731415D01*
Y728585D01*
X592483Y725851D01*
X593898Y723399D01*
X595899Y721398D01*
X598351Y719983D01*
X601085Y719250D01*
X603915D01*
X606649Y719983D01*
X609101Y721398D01*
X611102Y723399D01*
X612517Y725851D01*
X613250Y728585D01*
Y731415D01*
X612517Y734149D01*
X611102Y736601D01*
X609101Y738602D01*
X606649Y740017D01*
X603915Y740750D01*
D02*
G37*
G36*
X494280Y721620D02*
Y714026D01*
X501873D01*
X501294Y716188D01*
X500124Y718215D01*
X498469Y719870D01*
X496441Y721040D01*
X494280Y721620D01*
D02*
G37*
G36*
X491740D02*
X489579Y721040D01*
X487551Y719870D01*
X485896Y718215D01*
X484726Y716188D01*
X484147Y714026D01*
X491740D01*
Y721620D01*
D02*
G37*
G36*
X501873Y711486D02*
X494280D01*
Y703893D01*
X496441Y704472D01*
X498469Y705642D01*
X500124Y707298D01*
X501294Y709325D01*
X501873Y711486D01*
D02*
G37*
G36*
X491740D02*
X484147D01*
X484726Y709325D01*
X485896Y707298D01*
X487551Y705642D01*
X489579Y704472D01*
X491740Y703893D01*
Y711486D01*
D02*
G37*
G36*
X616270Y663863D02*
Y656270D01*
X623863D01*
X623284Y658431D01*
X622114Y660459D01*
X620459Y662114D01*
X618431Y663284D01*
X616270Y663863D01*
D02*
G37*
G36*
X613730D02*
X611569Y663284D01*
X609541Y662114D01*
X607886Y660459D01*
X606716Y658431D01*
X606137Y656270D01*
X613730D01*
Y663863D01*
D02*
G37*
G36*
X623863Y653730D02*
X616270D01*
Y646137D01*
X618431Y646716D01*
X620459Y647886D01*
X622114Y649541D01*
X623284Y651569D01*
X623863Y653730D01*
D02*
G37*
G36*
X613730D02*
X606137D01*
X606716Y651569D01*
X607886Y649541D01*
X609541Y647886D01*
X611569Y646716D01*
X613730Y646137D01*
Y653730D01*
D02*
G37*
G36*
X598731Y681850D02*
X596269D01*
X593891Y681213D01*
X591759Y679982D01*
X590018Y678241D01*
X588787Y676109D01*
X588150Y673731D01*
Y671269D01*
X588787Y668891D01*
X590018Y666759D01*
X591759Y665018D01*
X593891Y663787D01*
X596269Y663150D01*
X598731D01*
X601109Y663787D01*
X603241Y665018D01*
X604982Y666759D01*
X605059Y666892D01*
X880177D01*
X925690Y621380D01*
X925650Y621231D01*
Y618769D01*
X926287Y616391D01*
X927518Y614259D01*
X929259Y612518D01*
X931391Y611287D01*
X933769Y610650D01*
X936231D01*
X938609Y611287D01*
X940741Y612518D01*
X942482Y614259D01*
X943713Y616391D01*
X944350Y618769D01*
Y621231D01*
X943713Y623609D01*
X942482Y625741D01*
X940741Y627482D01*
X938609Y628713D01*
X936231Y629350D01*
X933769D01*
X933620Y629310D01*
X886465Y676465D01*
X884646Y677681D01*
X882500Y678108D01*
X605059D01*
X604982Y678241D01*
X603241Y679982D01*
X601109Y681213D01*
X598731Y681850D01*
D02*
G37*
G36*
X631231Y649350D02*
X628769D01*
X626391Y648713D01*
X624259Y647482D01*
X622518Y645741D01*
X621287Y643609D01*
X620650Y641231D01*
Y638769D01*
X621287Y636391D01*
X622518Y634259D01*
X624259Y632518D01*
X626391Y631287D01*
X628769Y630650D01*
X631231D01*
X632517Y630995D01*
X737912Y525600D01*
Y467088D01*
X567100D01*
X565344Y466739D01*
X563856Y465744D01*
X553456Y455344D01*
X551382Y455900D01*
X548618D01*
X545947Y455184D01*
X543553Y453802D01*
X541598Y451847D01*
X540216Y449453D01*
X539500Y446782D01*
Y444018D01*
X540216Y441347D01*
X541598Y438953D01*
X543553Y436998D01*
X545947Y435616D01*
X548618Y434900D01*
X551382D01*
X554053Y435616D01*
X556447Y436998D01*
X558402Y438953D01*
X559784Y441347D01*
X560500Y444018D01*
Y446782D01*
X559944Y448856D01*
X569001Y457912D01*
X737912D01*
Y455900D01*
X717300D01*
Y434900D01*
X737912D01*
Y430000D01*
X738261Y428244D01*
X739256Y426756D01*
X745994Y420017D01*
X745650Y418731D01*
Y416269D01*
X746287Y413891D01*
X747518Y411759D01*
X749259Y410018D01*
X751391Y408787D01*
X753769Y408150D01*
X756231D01*
X758609Y408787D01*
X760741Y410018D01*
X762482Y411759D01*
X763713Y413891D01*
X764350Y416269D01*
Y418731D01*
X763713Y421109D01*
X762482Y423241D01*
X760741Y424982D01*
X758609Y426213D01*
X756231Y426850D01*
X753769D01*
X752483Y426505D01*
X747088Y431900D01*
Y437893D01*
X748358Y438419D01*
X749259Y437518D01*
X751391Y436287D01*
X753769Y435650D01*
X756231D01*
X758609Y436287D01*
X760741Y437518D01*
X762482Y439259D01*
X763713Y441391D01*
X764350Y443769D01*
Y446231D01*
X763713Y448609D01*
X763069Y449724D01*
Y470276D01*
X763713Y471391D01*
X764350Y473769D01*
Y476231D01*
X763713Y478609D01*
X762482Y480741D01*
X760741Y482482D01*
X758609Y483713D01*
X756231Y484350D01*
X753769D01*
X751391Y483713D01*
X749259Y482482D01*
X748358Y481581D01*
X747088Y482107D01*
Y527500D01*
X746739Y529256D01*
X745744Y530744D01*
X643270Y633219D01*
X643756Y634392D01*
X830677D01*
X843840Y621230D01*
X843800Y621081D01*
Y618619D01*
X844437Y616241D01*
X845668Y614109D01*
X847409Y612368D01*
X849541Y611137D01*
X851919Y610500D01*
X854381D01*
X856759Y611137D01*
X858891Y612368D01*
X860632Y614109D01*
X861863Y616241D01*
X862500Y618619D01*
Y621081D01*
X861863Y623459D01*
X860632Y625591D01*
X858891Y627332D01*
X856759Y628563D01*
X854381Y629200D01*
X851919D01*
X851770Y629160D01*
X836965Y643965D01*
X835146Y645181D01*
X833000Y645608D01*
X637559D01*
X637482Y645741D01*
X635741Y647482D01*
X633609Y648713D01*
X631231Y649350D01*
D02*
G37*
G36*
X756270Y611363D02*
Y603770D01*
X763863D01*
X763284Y605931D01*
X762114Y607959D01*
X760459Y609614D01*
X758431Y610784D01*
X756270Y611363D01*
D02*
G37*
G36*
X753730D02*
X751569Y610784D01*
X749541Y609614D01*
X747886Y607959D01*
X746716Y605931D01*
X746137Y603770D01*
X753730D01*
Y611363D01*
D02*
G37*
G36*
X735270D02*
Y603770D01*
X742863D01*
X742284Y605931D01*
X741114Y607959D01*
X739459Y609614D01*
X737431Y610784D01*
X735270Y611363D01*
D02*
G37*
G36*
X732730D02*
X730569Y610784D01*
X728541Y609614D01*
X726886Y607959D01*
X725716Y605931D01*
X725137Y603770D01*
X732730D01*
Y611363D01*
D02*
G37*
G36*
X763863Y601230D02*
X756270D01*
Y593637D01*
X758431Y594216D01*
X760459Y595386D01*
X762114Y597041D01*
X763284Y599069D01*
X763863Y601230D01*
D02*
G37*
G36*
X753730D02*
X746137D01*
X746716Y599069D01*
X747886Y597041D01*
X749541Y595386D01*
X751569Y594216D01*
X753730Y593637D01*
Y601230D01*
D02*
G37*
G36*
X742863D02*
X735270D01*
Y593637D01*
X737431Y594216D01*
X739459Y595386D01*
X741114Y597041D01*
X742284Y599069D01*
X742863Y601230D01*
D02*
G37*
G36*
X732730D02*
X725137D01*
X725716Y599069D01*
X726886Y597041D01*
X728541Y595386D01*
X730569Y594216D01*
X732730Y593637D01*
Y601230D01*
D02*
G37*
G36*
X563770Y586363D02*
Y578770D01*
X571363D01*
X570784Y580931D01*
X569614Y582959D01*
X567959Y584614D01*
X565931Y585784D01*
X563770Y586363D01*
D02*
G37*
G36*
X561230D02*
X559069Y585784D01*
X557041Y584614D01*
X555386Y582959D01*
X554216Y580931D01*
X553637Y578770D01*
X561230D01*
Y586363D01*
D02*
G37*
G36*
X571363Y576230D02*
X563770D01*
Y568637D01*
X565931Y569216D01*
X567959Y570386D01*
X569614Y572041D01*
X570784Y574069D01*
X571363Y576230D01*
D02*
G37*
G36*
X561230D02*
X553637D01*
X554216Y574069D01*
X555386Y572041D01*
X557041Y570386D01*
X559069Y569216D01*
X561230Y568637D01*
Y576230D01*
D02*
G37*
G36*
X761020Y561613D02*
Y554020D01*
X768613D01*
X768034Y556181D01*
X766864Y558209D01*
X765209Y559864D01*
X763181Y561034D01*
X761020Y561613D01*
D02*
G37*
G36*
X758480D02*
X756319Y561034D01*
X754291Y559864D01*
X752636Y558209D01*
X751466Y556181D01*
X750887Y554020D01*
X758480D01*
Y561613D01*
D02*
G37*
G36*
X768613Y551480D02*
X761020D01*
Y543887D01*
X763181Y544466D01*
X765209Y545636D01*
X766864Y547291D01*
X768034Y549319D01*
X768613Y551480D01*
D02*
G37*
G36*
X758480D02*
X750887D01*
X751466Y549319D01*
X752636Y547291D01*
X754291Y545636D01*
X756319Y544466D01*
X758480Y543887D01*
Y551480D01*
D02*
G37*
G36*
X508270Y497863D02*
Y490270D01*
X515863D01*
X515284Y492431D01*
X514114Y494459D01*
X512459Y496114D01*
X510431Y497284D01*
X508270Y497863D01*
D02*
G37*
G36*
X505730D02*
X503569Y497284D01*
X501541Y496114D01*
X499886Y494459D01*
X498716Y492431D01*
X498137Y490270D01*
X505730D01*
Y497863D01*
D02*
G37*
G36*
X515863Y487730D02*
X508270D01*
Y480137D01*
X510431Y480716D01*
X512459Y481886D01*
X514114Y483541D01*
X515284Y485569D01*
X515863Y487730D01*
D02*
G37*
G36*
X505730D02*
X498137D01*
X498716Y485569D01*
X499886Y483541D01*
X501541Y481886D01*
X503569Y480716D01*
X505730Y480137D01*
Y487730D01*
D02*
G37*
G36*
X961270Y483863D02*
Y476270D01*
X968863D01*
X968284Y478431D01*
X967114Y480459D01*
X965459Y482114D01*
X963431Y483284D01*
X961270Y483863D01*
D02*
G37*
G36*
X958730D02*
X956569Y483284D01*
X954541Y482114D01*
X952886Y480459D01*
X951716Y478431D01*
X951137Y476270D01*
X958730D01*
Y483863D01*
D02*
G37*
G36*
X881270D02*
Y476270D01*
X888863D01*
X888284Y478431D01*
X887114Y480459D01*
X885459Y482114D01*
X883431Y483284D01*
X881270Y483863D01*
D02*
G37*
G36*
X878730D02*
X876569Y483284D01*
X874541Y482114D01*
X872886Y480459D01*
X871716Y478431D01*
X871137Y476270D01*
X878730D01*
Y483863D01*
D02*
G37*
G36*
X968863Y473730D02*
X961270D01*
Y466137D01*
X963431Y466716D01*
X965459Y467886D01*
X967114Y469541D01*
X968284Y471569D01*
X968863Y473730D01*
D02*
G37*
G36*
X958730D02*
X951137D01*
X951716Y471569D01*
X952886Y469541D01*
X954541Y467886D01*
X956569Y466716D01*
X958730Y466137D01*
Y473730D01*
D02*
G37*
G36*
X888863D02*
X881270D01*
Y466137D01*
X883431Y466716D01*
X885459Y467886D01*
X887114Y469541D01*
X888284Y471569D01*
X888863Y473730D01*
D02*
G37*
G36*
X878730D02*
X871137D01*
X871716Y471569D01*
X872886Y469541D01*
X874541Y467886D01*
X876569Y466716D01*
X878730Y466137D01*
Y473730D01*
D02*
G37*
G36*
X941270Y443863D02*
Y436270D01*
X948863D01*
X948284Y438431D01*
X947114Y440459D01*
X945459Y442114D01*
X943431Y443284D01*
X941270Y443863D01*
D02*
G37*
G36*
X938730D02*
X936569Y443284D01*
X934541Y442114D01*
X932886Y440459D01*
X931716Y438431D01*
X931137Y436270D01*
X938730D01*
Y443863D01*
D02*
G37*
G36*
X703782Y455900D02*
X701018D01*
X698347Y455184D01*
X695953Y453802D01*
X693998Y451847D01*
X692616Y449453D01*
X691900Y446782D01*
Y444018D01*
X692616Y441347D01*
X693998Y438953D01*
X695953Y436998D01*
X698347Y435616D01*
X701018Y434900D01*
X703782D01*
X706453Y435616D01*
X708847Y436998D01*
X710802Y438953D01*
X712184Y441347D01*
X712900Y444018D01*
Y446782D01*
X712184Y449453D01*
X710802Y451847D01*
X708847Y453802D01*
X706453Y455184D01*
X703782Y455900D01*
D02*
G37*
G36*
X678382D02*
X675618D01*
X672947Y455184D01*
X670553Y453802D01*
X668598Y451847D01*
X667216Y449453D01*
X666500Y446782D01*
Y444018D01*
X667216Y441347D01*
X668598Y438953D01*
X670553Y436998D01*
X672947Y435616D01*
X675618Y434900D01*
X678382D01*
X681053Y435616D01*
X683447Y436998D01*
X685402Y438953D01*
X686784Y441347D01*
X687500Y444018D01*
Y446782D01*
X686784Y449453D01*
X685402Y451847D01*
X683447Y453802D01*
X681053Y455184D01*
X678382Y455900D01*
D02*
G37*
G36*
X652982D02*
X650218D01*
X647547Y455184D01*
X645153Y453802D01*
X643198Y451847D01*
X641816Y449453D01*
X641100Y446782D01*
Y444018D01*
X641816Y441347D01*
X643198Y438953D01*
X645153Y436998D01*
X647547Y435616D01*
X650218Y434900D01*
X652982D01*
X655653Y435616D01*
X658047Y436998D01*
X660002Y438953D01*
X661384Y441347D01*
X662100Y444018D01*
Y446782D01*
X661384Y449453D01*
X660002Y451847D01*
X658047Y453802D01*
X655653Y455184D01*
X652982Y455900D01*
D02*
G37*
G36*
X627582D02*
X624818D01*
X622147Y455184D01*
X619753Y453802D01*
X617798Y451847D01*
X616416Y449453D01*
X615700Y446782D01*
Y444018D01*
X616416Y441347D01*
X617798Y438953D01*
X619753Y436998D01*
X622147Y435616D01*
X624818Y434900D01*
X627582D01*
X630253Y435616D01*
X632647Y436998D01*
X634602Y438953D01*
X635984Y441347D01*
X636700Y444018D01*
Y446782D01*
X635984Y449453D01*
X634602Y451847D01*
X632647Y453802D01*
X630253Y455184D01*
X627582Y455900D01*
D02*
G37*
G36*
X602182D02*
X599418D01*
X596747Y455184D01*
X594353Y453802D01*
X592398Y451847D01*
X591016Y449453D01*
X590300Y446782D01*
Y444018D01*
X591016Y441347D01*
X592398Y438953D01*
X594353Y436998D01*
X596747Y435616D01*
X599418Y434900D01*
X602182D01*
X604853Y435616D01*
X607247Y436998D01*
X609202Y438953D01*
X610584Y441347D01*
X611300Y444018D01*
Y446782D01*
X610584Y449453D01*
X609202Y451847D01*
X607247Y453802D01*
X604853Y455184D01*
X602182Y455900D01*
D02*
G37*
G36*
X576782D02*
X574018D01*
X571347Y455184D01*
X568953Y453802D01*
X566998Y451847D01*
X565616Y449453D01*
X564900Y446782D01*
Y444018D01*
X565616Y441347D01*
X566998Y438953D01*
X568953Y436998D01*
X571347Y435616D01*
X574018Y434900D01*
X576782D01*
X579453Y435616D01*
X581847Y436998D01*
X583802Y438953D01*
X585184Y441347D01*
X585900Y444018D01*
Y446782D01*
X585184Y449453D01*
X583802Y451847D01*
X581847Y453802D01*
X579453Y455184D01*
X576782Y455900D01*
D02*
G37*
G36*
X525982D02*
X523218D01*
X520547Y455184D01*
X518153Y453802D01*
X516198Y451847D01*
X514816Y449453D01*
X514100Y446782D01*
Y444018D01*
X514816Y441347D01*
X516198Y438953D01*
X518153Y436998D01*
X520547Y435616D01*
X523218Y434900D01*
X525982D01*
X528653Y435616D01*
X531047Y436998D01*
X533002Y438953D01*
X534384Y441347D01*
X535100Y444018D01*
Y446782D01*
X534384Y449453D01*
X533002Y451847D01*
X531047Y453802D01*
X528653Y455184D01*
X525982Y455900D01*
D02*
G37*
G36*
X500582D02*
X497818D01*
X495147Y455184D01*
X492753Y453802D01*
X490798Y451847D01*
X489416Y449453D01*
X488700Y446782D01*
Y444018D01*
X489416Y441347D01*
X490798Y438953D01*
X492753Y436998D01*
X495147Y435616D01*
X497818Y434900D01*
X500582D01*
X503253Y435616D01*
X505647Y436998D01*
X507602Y438953D01*
X508984Y441347D01*
X509700Y444018D01*
Y446782D01*
X508984Y449453D01*
X507602Y451847D01*
X505647Y453802D01*
X503253Y455184D01*
X500582Y455900D01*
D02*
G37*
G36*
X783770Y457193D02*
X781230D01*
X778126Y456784D01*
X775234Y455586D01*
X772750Y453680D01*
X770844Y451196D01*
X769646Y448304D01*
X769237Y445200D01*
X769646Y442096D01*
X770844Y439204D01*
X772750Y436720D01*
X775234Y434814D01*
X778126Y433616D01*
X781230Y433207D01*
X783770D01*
X786874Y433616D01*
X789766Y434814D01*
X792250Y436720D01*
X794156Y439204D01*
X795354Y442096D01*
X795763Y445200D01*
X795354Y448304D01*
X794156Y451196D01*
X792250Y453680D01*
X789766Y455586D01*
X786874Y456784D01*
X783770Y457193D01*
D02*
G37*
G36*
X948863Y433730D02*
X941270D01*
Y426137D01*
X943431Y426716D01*
X945459Y427886D01*
X947114Y429541D01*
X948284Y431569D01*
X948863Y433730D01*
D02*
G37*
G36*
X938730D02*
X931137D01*
X931716Y431569D01*
X932886Y429541D01*
X934541Y427886D01*
X936569Y426716D01*
X938730Y426137D01*
Y433730D01*
D02*
G37*
G36*
X602122Y430040D02*
X602070D01*
Y421270D01*
X610840D01*
Y421322D01*
X610156Y423875D01*
X608834Y426165D01*
X606965Y428034D01*
X604675Y429356D01*
X602122Y430040D01*
D02*
G37*
G36*
X551322D02*
X551270D01*
Y421270D01*
X560040D01*
Y421322D01*
X559356Y423875D01*
X558034Y426165D01*
X556165Y428034D01*
X553875Y429356D01*
X551322Y430040D01*
D02*
G37*
G36*
X703722D02*
X703670D01*
Y421270D01*
X712440D01*
Y421322D01*
X711756Y423875D01*
X710434Y426165D01*
X708565Y428034D01*
X706275Y429356D01*
X703722Y430040D01*
D02*
G37*
G36*
X678322D02*
X678270D01*
Y421270D01*
X687040D01*
Y421322D01*
X686356Y423875D01*
X685034Y426165D01*
X683165Y428034D01*
X680875Y429356D01*
X678322Y430040D01*
D02*
G37*
G36*
X652922D02*
X652870D01*
Y421270D01*
X661640D01*
Y421322D01*
X660956Y423875D01*
X659634Y426165D01*
X657765Y428034D01*
X655475Y429356D01*
X652922Y430040D01*
D02*
G37*
G36*
X627522D02*
X627470D01*
Y421270D01*
X636240D01*
Y421322D01*
X635556Y423875D01*
X634234Y426165D01*
X632365Y428034D01*
X630075Y429356D01*
X627522Y430040D01*
D02*
G37*
G36*
X500522D02*
X500470D01*
Y421270D01*
X509240D01*
Y421322D01*
X508556Y423875D01*
X507234Y426165D01*
X505365Y428034D01*
X503075Y429356D01*
X500522Y430040D01*
D02*
G37*
G36*
X576722D02*
X576670D01*
Y421270D01*
X585440D01*
Y421322D01*
X584756Y423875D01*
X583434Y426165D01*
X581565Y428034D01*
X579275Y429356D01*
X576722Y430040D01*
D02*
G37*
G36*
X525922D02*
X525870D01*
Y421270D01*
X534640D01*
Y421322D01*
X533956Y423875D01*
X532634Y426165D01*
X530765Y428034D01*
X528475Y429356D01*
X525922Y430040D01*
D02*
G37*
G36*
X599530D02*
X599478D01*
X596925Y429356D01*
X594635Y428034D01*
X592766Y426165D01*
X591444Y423875D01*
X590760Y421322D01*
Y421270D01*
X599530D01*
Y430040D01*
D02*
G37*
G36*
X548730D02*
X548678D01*
X546125Y429356D01*
X543835Y428034D01*
X541966Y426165D01*
X540644Y423875D01*
X539960Y421322D01*
Y421270D01*
X548730D01*
Y430040D01*
D02*
G37*
G36*
X701130D02*
X701078D01*
X698525Y429356D01*
X696235Y428034D01*
X694366Y426165D01*
X693044Y423875D01*
X692360Y421322D01*
Y421270D01*
X701130D01*
Y430040D01*
D02*
G37*
G36*
X675730D02*
X675678D01*
X673125Y429356D01*
X670835Y428034D01*
X668966Y426165D01*
X667644Y423875D01*
X666960Y421322D01*
Y421270D01*
X675730D01*
Y430040D01*
D02*
G37*
G36*
X497930D02*
X497878D01*
X495325Y429356D01*
X493035Y428034D01*
X491166Y426165D01*
X489844Y423875D01*
X489160Y421322D01*
Y421270D01*
X497930D01*
Y430040D01*
D02*
G37*
G36*
X650330D02*
X650278D01*
X647725Y429356D01*
X645435Y428034D01*
X643566Y426165D01*
X642244Y423875D01*
X641560Y421322D01*
Y421270D01*
X650330D01*
Y430040D01*
D02*
G37*
G36*
X624930D02*
X624878D01*
X622325Y429356D01*
X620035Y428034D01*
X618166Y426165D01*
X616844Y423875D01*
X616160Y421322D01*
Y421270D01*
X624930D01*
Y430040D01*
D02*
G37*
G36*
X574130D02*
X574078D01*
X571525Y429356D01*
X569235Y428034D01*
X567366Y426165D01*
X566044Y423875D01*
X565360Y421322D01*
Y421270D01*
X574130D01*
Y430040D01*
D02*
G37*
G36*
X523330D02*
X523278D01*
X520725Y429356D01*
X518435Y428034D01*
X516566Y426165D01*
X515244Y423875D01*
X514560Y421322D01*
Y421270D01*
X523330D01*
Y430040D01*
D02*
G37*
G36*
X854920Y421513D02*
Y413920D01*
X862513D01*
X861934Y416081D01*
X860764Y418109D01*
X859109Y419764D01*
X857081Y420934D01*
X854920Y421513D01*
D02*
G37*
G36*
X852380D02*
X850219Y420934D01*
X848191Y419764D01*
X846536Y418109D01*
X845366Y416081D01*
X844787Y413920D01*
X852380D01*
Y421513D01*
D02*
G37*
G36*
X712440Y418730D02*
X703670D01*
Y409960D01*
X703722D01*
X706275Y410644D01*
X708565Y411966D01*
X710434Y413835D01*
X711756Y416125D01*
X712440Y418678D01*
Y418730D01*
D02*
G37*
G36*
X701130D02*
X692360D01*
Y418678D01*
X693044Y416125D01*
X694366Y413835D01*
X696235Y411966D01*
X698525Y410644D01*
X701078Y409960D01*
X701130D01*
Y418730D01*
D02*
G37*
G36*
X687040D02*
X678270D01*
Y409960D01*
X678322D01*
X680875Y410644D01*
X683165Y411966D01*
X685034Y413835D01*
X686356Y416125D01*
X687040Y418678D01*
Y418730D01*
D02*
G37*
G36*
X675730D02*
X666960D01*
Y418678D01*
X667644Y416125D01*
X668966Y413835D01*
X670835Y411966D01*
X673125Y410644D01*
X675678Y409960D01*
X675730D01*
Y418730D01*
D02*
G37*
G36*
X661640D02*
X652870D01*
Y409960D01*
X652922D01*
X655475Y410644D01*
X657765Y411966D01*
X659634Y413835D01*
X660956Y416125D01*
X661640Y418678D01*
Y418730D01*
D02*
G37*
G36*
X650330D02*
X641560D01*
Y418678D01*
X642244Y416125D01*
X643566Y413835D01*
X645435Y411966D01*
X647725Y410644D01*
X650278Y409960D01*
X650330D01*
Y418730D01*
D02*
G37*
G36*
X636240D02*
X627470D01*
Y409960D01*
X627522D01*
X630075Y410644D01*
X632365Y411966D01*
X634234Y413835D01*
X635556Y416125D01*
X636240Y418678D01*
Y418730D01*
D02*
G37*
G36*
X624930D02*
X616160D01*
Y418678D01*
X616844Y416125D01*
X618166Y413835D01*
X620035Y411966D01*
X622325Y410644D01*
X624878Y409960D01*
X624930D01*
Y418730D01*
D02*
G37*
G36*
X610840D02*
X602070D01*
Y409960D01*
X602122D01*
X604675Y410644D01*
X606965Y411966D01*
X608834Y413835D01*
X610156Y416125D01*
X610840Y418678D01*
Y418730D01*
D02*
G37*
G36*
X599530D02*
X590760D01*
Y418678D01*
X591444Y416125D01*
X592766Y413835D01*
X594635Y411966D01*
X596925Y410644D01*
X599478Y409960D01*
X599530D01*
Y418730D01*
D02*
G37*
G36*
X585440D02*
X576670D01*
Y409960D01*
X576722D01*
X579275Y410644D01*
X581565Y411966D01*
X583434Y413835D01*
X584756Y416125D01*
X585440Y418678D01*
Y418730D01*
D02*
G37*
G36*
X574130D02*
X565360D01*
Y418678D01*
X566044Y416125D01*
X567366Y413835D01*
X569235Y411966D01*
X571525Y410644D01*
X574078Y409960D01*
X574130D01*
Y418730D01*
D02*
G37*
G36*
X560040D02*
X551270D01*
Y409960D01*
X551322D01*
X553875Y410644D01*
X556165Y411966D01*
X558034Y413835D01*
X559356Y416125D01*
X560040Y418678D01*
Y418730D01*
D02*
G37*
G36*
X548730D02*
X539960D01*
Y418678D01*
X540644Y416125D01*
X541966Y413835D01*
X543835Y411966D01*
X546125Y410644D01*
X548678Y409960D01*
X548730D01*
Y418730D01*
D02*
G37*
G36*
X534640D02*
X525870D01*
Y409960D01*
X525922D01*
X528475Y410644D01*
X530765Y411966D01*
X532634Y413835D01*
X533956Y416125D01*
X534640Y418678D01*
Y418730D01*
D02*
G37*
G36*
X523330D02*
X514560D01*
Y418678D01*
X515244Y416125D01*
X516566Y413835D01*
X518435Y411966D01*
X520725Y410644D01*
X523278Y409960D01*
X523330D01*
Y418730D01*
D02*
G37*
G36*
X509240D02*
X500470D01*
Y409960D01*
X500522D01*
X503075Y410644D01*
X505365Y411966D01*
X507234Y413835D01*
X508556Y416125D01*
X509240Y418678D01*
Y418730D01*
D02*
G37*
G36*
X497930D02*
X489160D01*
Y418678D01*
X489844Y416125D01*
X491166Y413835D01*
X493035Y411966D01*
X495325Y410644D01*
X497878Y409960D01*
X497930D01*
Y418730D01*
D02*
G37*
G36*
X729182Y430500D02*
X726418D01*
X723747Y429784D01*
X721353Y428402D01*
X719398Y426447D01*
X718016Y424053D01*
X717300Y421382D01*
Y418618D01*
X718016Y415947D01*
X719398Y413553D01*
X721353Y411598D01*
X723747Y410216D01*
X726418Y409500D01*
X729182D01*
X731853Y410216D01*
X734247Y411598D01*
X736202Y413553D01*
X737584Y415947D01*
X738300Y418618D01*
Y421382D01*
X737584Y424053D01*
X736202Y426447D01*
X734247Y428402D01*
X731853Y429784D01*
X729182Y430500D01*
D02*
G37*
G36*
X783770Y431793D02*
X781230D01*
X778126Y431384D01*
X775234Y430186D01*
X772750Y428280D01*
X770844Y425796D01*
X769646Y422904D01*
X769237Y419800D01*
X769646Y416696D01*
X770844Y413804D01*
X772750Y411320D01*
X775234Y409414D01*
X778126Y408216D01*
X781230Y407807D01*
X783770D01*
X786874Y408216D01*
X789766Y409414D01*
X792250Y411320D01*
X794156Y413804D01*
X795354Y416696D01*
X795763Y419800D01*
X795354Y422904D01*
X794156Y425796D01*
X792250Y428280D01*
X789766Y430186D01*
X786874Y431384D01*
X783770Y431793D01*
D02*
G37*
G36*
X862513Y411380D02*
X854920D01*
Y403787D01*
X857081Y404366D01*
X859109Y405536D01*
X860764Y407191D01*
X861934Y409219D01*
X862513Y411380D01*
D02*
G37*
G36*
X852380D02*
X844787D01*
X845366Y409219D01*
X846536Y407191D01*
X848191Y405536D01*
X850219Y404366D01*
X852380Y403787D01*
Y411380D01*
D02*
G37*
G36*
X643770Y403863D02*
Y396270D01*
X651363D01*
X650784Y398431D01*
X649614Y400459D01*
X647959Y402114D01*
X645931Y403284D01*
X643770Y403863D01*
D02*
G37*
G36*
X641230D02*
X639069Y403284D01*
X637041Y402114D01*
X635386Y400459D01*
X634216Y398431D01*
X633637Y396270D01*
X641230D01*
Y403863D01*
D02*
G37*
G36*
X521270Y401363D02*
Y393770D01*
X528863D01*
X528284Y395931D01*
X527114Y397959D01*
X525459Y399614D01*
X523431Y400784D01*
X521270Y401363D01*
D02*
G37*
G36*
X518730D02*
X516569Y400784D01*
X514541Y399614D01*
X512886Y397959D01*
X511716Y395931D01*
X511137Y393770D01*
X518730D01*
Y401363D01*
D02*
G37*
G36*
X456270D02*
Y393770D01*
X463863D01*
X463284Y395931D01*
X462114Y397959D01*
X460459Y399614D01*
X458431Y400784D01*
X456270Y401363D01*
D02*
G37*
G36*
X651363Y393730D02*
X643770D01*
Y386137D01*
X645931Y386716D01*
X647959Y387886D01*
X649614Y389541D01*
X650784Y391569D01*
X651363Y393730D01*
D02*
G37*
G36*
X641230D02*
X633637D01*
X634216Y391569D01*
X635386Y389541D01*
X637041Y387886D01*
X639069Y386716D01*
X641230Y386137D01*
Y393730D01*
D02*
G37*
G36*
X528863Y391230D02*
X521270D01*
Y383637D01*
X523431Y384216D01*
X525459Y385386D01*
X527114Y387041D01*
X528284Y389069D01*
X528863Y391230D01*
D02*
G37*
G36*
X518730D02*
X511137D01*
X511716Y389069D01*
X512886Y387041D01*
X514541Y385386D01*
X516569Y384216D01*
X518730Y383637D01*
Y391230D01*
D02*
G37*
G36*
X463863D02*
X456270D01*
Y383637D01*
X458431Y384216D01*
X460459Y385386D01*
X462114Y387041D01*
X463284Y389069D01*
X463863Y391230D01*
D02*
G37*
G36*
X672900Y383263D02*
X669796Y382854D01*
X666904Y381656D01*
X664420Y379750D01*
X662514Y377266D01*
X661316Y374374D01*
X660907Y371270D01*
Y368730D01*
X661316Y365626D01*
X662514Y362734D01*
X664420Y360250D01*
X666904Y358344D01*
X669796Y357146D01*
X672900Y356737D01*
X676004Y357146D01*
X678896Y358344D01*
X681380Y360250D01*
X683286Y362734D01*
X684484Y365626D01*
X684893Y368730D01*
Y371270D01*
X684484Y374374D01*
X683286Y377266D01*
X681380Y379750D01*
X678896Y381656D01*
X676004Y382854D01*
X672900Y383263D01*
D02*
G37*
G36*
X647500D02*
X644396Y382854D01*
X641504Y381656D01*
X639020Y379750D01*
X637114Y377266D01*
X635916Y374374D01*
X635507Y371270D01*
Y368730D01*
X635916Y365626D01*
X637114Y362734D01*
X639020Y360250D01*
X641504Y358344D01*
X644396Y357146D01*
X647500Y356737D01*
X650604Y357146D01*
X653496Y358344D01*
X655980Y360250D01*
X657886Y362734D01*
X659084Y365626D01*
X659493Y368730D01*
Y371270D01*
X659084Y374374D01*
X657886Y377266D01*
X655980Y379750D01*
X653496Y381656D01*
X650604Y382854D01*
X647500Y383263D01*
D02*
G37*
G36*
X564000Y377500D02*
X518000D01*
Y356500D01*
X564000D01*
Y377500D01*
D02*
G37*
G36*
X598040Y357040D02*
X589270D01*
Y338270D01*
X598040D01*
Y357040D01*
D02*
G37*
G36*
X586730D02*
X577960D01*
Y338270D01*
X586730D01*
Y357040D01*
D02*
G37*
G36*
X598040Y335730D02*
X589270D01*
Y316960D01*
X598040D01*
Y335730D01*
D02*
G37*
G36*
X586730D02*
X577960D01*
Y316960D01*
X586730D01*
Y335730D01*
D02*
G37*
G36*
X943270Y320863D02*
Y313270D01*
X950863D01*
X950284Y315431D01*
X949114Y317459D01*
X947459Y319114D01*
X945431Y320284D01*
X943270Y320863D01*
D02*
G37*
G36*
X940730D02*
X938569Y320284D01*
X936541Y319114D01*
X934886Y317459D01*
X933716Y315431D01*
X933137Y313270D01*
X940730D01*
Y320863D01*
D02*
G37*
G36*
X561040Y317040D02*
X542270D01*
Y308270D01*
X561040D01*
Y317040D01*
D02*
G37*
G36*
X539730D02*
X520960D01*
Y308270D01*
X539730D01*
Y317040D01*
D02*
G37*
G36*
X950863Y310730D02*
X943270D01*
Y303137D01*
X945431Y303716D01*
X947459Y304886D01*
X949114Y306541D01*
X950284Y308569D01*
X950863Y310730D01*
D02*
G37*
G36*
X940730D02*
X933137D01*
X933716Y308569D01*
X934886Y306541D01*
X936541Y304886D01*
X938569Y303716D01*
X940730Y303137D01*
Y310730D01*
D02*
G37*
G36*
X561040Y305730D02*
X542270D01*
Y296960D01*
X561040D01*
Y305730D01*
D02*
G37*
G36*
X539730D02*
X520960D01*
Y296960D01*
X539730D01*
Y305730D01*
D02*
G37*
G36*
X733770Y276363D02*
Y268770D01*
X741363D01*
X740784Y270931D01*
X739614Y272959D01*
X737959Y274614D01*
X735931Y275784D01*
X733770Y276363D01*
D02*
G37*
G36*
X731230D02*
X729069Y275784D01*
X727041Y274614D01*
X725386Y272959D01*
X724216Y270931D01*
X723637Y268770D01*
X731230D01*
Y276363D01*
D02*
G37*
G36*
X608270Y274863D02*
Y267270D01*
X615863D01*
X615284Y269431D01*
X614114Y271459D01*
X612459Y273114D01*
X610431Y274284D01*
X608270Y274863D01*
D02*
G37*
G36*
X605730D02*
X603569Y274284D01*
X601541Y273114D01*
X599886Y271459D01*
X598716Y269431D01*
X598137Y267270D01*
X605730D01*
Y274863D01*
D02*
G37*
G36*
X741363Y266230D02*
X733770D01*
Y258637D01*
X735931Y259216D01*
X737959Y260386D01*
X739614Y262041D01*
X740784Y264069D01*
X741363Y266230D01*
D02*
G37*
G36*
X731230D02*
X723637D01*
X724216Y264069D01*
X725386Y262041D01*
X727041Y260386D01*
X729069Y259216D01*
X731230Y258637D01*
Y266230D01*
D02*
G37*
G36*
X615863Y264730D02*
X608270D01*
Y257137D01*
X610431Y257716D01*
X612459Y258886D01*
X614114Y260541D01*
X615284Y262569D01*
X615863Y264730D01*
D02*
G37*
G36*
X605730D02*
X598137D01*
X598716Y262569D01*
X599886Y260541D01*
X601541Y258886D01*
X603569Y257716D01*
X605730Y257137D01*
Y264730D01*
D02*
G37*
G36*
X971914Y269540D02*
X971270D01*
Y256270D01*
X984540D01*
Y256914D01*
X983549Y260612D01*
X981635Y263928D01*
X978928Y266635D01*
X975612Y268549D01*
X971914Y269540D01*
D02*
G37*
G36*
X968730D02*
X968086D01*
X964388Y268549D01*
X961072Y266635D01*
X958365Y263928D01*
X956451Y260612D01*
X955460Y256914D01*
Y256270D01*
X968730D01*
Y269540D01*
D02*
G37*
G36*
X471914D02*
X471270D01*
Y256270D01*
X484540D01*
Y256914D01*
X483549Y260612D01*
X481635Y263928D01*
X478928Y266635D01*
X475612Y268549D01*
X471914Y269540D01*
D02*
G37*
G36*
X468730D02*
X468086D01*
X464388Y268549D01*
X461072Y266635D01*
X458365Y263928D01*
X456451Y260612D01*
X455460Y256914D01*
Y256270D01*
X468730D01*
Y269540D01*
D02*
G37*
G36*
X984540Y253730D02*
X971270D01*
Y240460D01*
X971914D01*
X975612Y241451D01*
X978928Y243365D01*
X981635Y246072D01*
X983549Y249388D01*
X984540Y253086D01*
Y253730D01*
D02*
G37*
G36*
X968730D02*
X955460D01*
Y253086D01*
X956451Y249388D01*
X958365Y246072D01*
X961072Y243365D01*
X964388Y241451D01*
X968086Y240460D01*
X968730D01*
Y253730D01*
D02*
G37*
G36*
X484540D02*
X471270D01*
Y240460D01*
X471914D01*
X475612Y241451D01*
X478928Y243365D01*
X481635Y246072D01*
X483549Y249388D01*
X484540Y253086D01*
Y253730D01*
D02*
G37*
G36*
X468730D02*
X455460D01*
Y253086D01*
X456451Y249388D01*
X458365Y246072D01*
X461072Y243365D01*
X464388Y241451D01*
X468086Y240460D01*
X468730D01*
Y253730D01*
D02*
G37*
%LPD*%
G36*
X632535Y639894D02*
X632640Y639724D01*
X632816Y639492D01*
X633378Y638839D01*
X636010Y636111D01*
X633889Y633990D01*
X629999Y637500D01*
X632500Y640002D01*
X632535Y639894D01*
D02*
G37*
G36*
X744000Y462500D02*
X741000Y458000D01*
X740970Y458570D01*
X740880Y459080D01*
X740730Y459530D01*
X740520Y459920D01*
X740250Y460250D01*
X739920Y460520D01*
X739530Y460730D01*
X739080Y460880D01*
X738570Y460970D01*
X738000Y461000D01*
Y464000D01*
X738570Y464030D01*
X739080Y464120D01*
X739530Y464270D01*
X739920Y464480D01*
X740250Y464750D01*
X740520Y465080D01*
X740730Y465470D01*
X740880Y465920D01*
X740970Y466430D01*
X741000Y467000D01*
X744000Y462500D01*
D02*
G37*
D18*
X955000Y1014100D02*
D03*
D59*
X837500Y1095000D02*
D03*
X537500Y775000D02*
D03*
Y1015000D02*
D03*
Y1095000D02*
D03*
X637500D02*
D03*
Y1015000D02*
D03*
X837500D02*
D03*
X737500D02*
D03*
Y1095000D02*
D03*
X637500Y855000D02*
D03*
X537500D02*
D03*
X637500Y775000D02*
D03*
X737500D02*
D03*
X837500D02*
D03*
Y855000D02*
D03*
X537500Y935000D02*
D03*
X637500D02*
D03*
X837500D02*
D03*
X737500Y855000D02*
D03*
Y935000D02*
D03*
D60*
X902500Y1095000D02*
D03*
X837500Y1050000D02*
D03*
X902500D02*
D03*
X602500Y775000D02*
D03*
X537500Y730000D02*
D03*
X602500D02*
D03*
Y970000D02*
D03*
X537500D02*
D03*
X602500Y1015000D02*
D03*
Y1050000D02*
D03*
X537500D02*
D03*
X602500Y1095000D02*
D03*
X702500Y1050000D02*
D03*
X637500D02*
D03*
X702500Y1095000D02*
D03*
Y1015000D02*
D03*
X637500Y970000D02*
D03*
X702500D02*
D03*
X902500D02*
D03*
X837500D02*
D03*
X902500Y1015000D02*
D03*
X802500D02*
D03*
X737500Y970000D02*
D03*
X802500D02*
D03*
Y1050000D02*
D03*
X737500D02*
D03*
X802500Y1095000D02*
D03*
X702500Y855000D02*
D03*
X637500Y810000D02*
D03*
X702500D02*
D03*
X602500D02*
D03*
X537500D02*
D03*
X602500Y855000D02*
D03*
X702500Y730000D02*
D03*
X637500D02*
D03*
X702500Y775000D02*
D03*
X802500Y730000D02*
D03*
X737500D02*
D03*
X802500Y775000D02*
D03*
X902500Y730000D02*
D03*
X837500D02*
D03*
X902500Y775000D02*
D03*
Y810000D02*
D03*
X837500D02*
D03*
X902500Y855000D02*
D03*
X602500Y890000D02*
D03*
X537500D02*
D03*
X602500Y935000D02*
D03*
X702500D02*
D03*
X637500Y890000D02*
D03*
X702500D02*
D03*
X902500D02*
D03*
X837500D02*
D03*
X902500Y935000D02*
D03*
X802500Y855000D02*
D03*
X737500Y810000D02*
D03*
X802500D02*
D03*
Y935000D02*
D03*
X737500Y890000D02*
D03*
X802500D02*
D03*
D63*
X837500Y970000D02*
X838132Y970632D01*
Y985632D01*
X902500Y1050000D01*
X837500Y890000D02*
X838132Y890633D01*
Y905632D01*
X902500Y970000D01*
X837500Y810000D02*
X838132Y810633D01*
Y825632D01*
X902500Y890000D01*
X837500Y730000D02*
X838132Y730632D01*
Y745632D01*
X902500Y810000D01*
X737500Y970000D02*
X738132Y970632D01*
Y985632D01*
X802500Y1050000D01*
X737500Y890000D02*
X738132Y890633D01*
Y905632D01*
X802500Y970000D01*
X737500Y810000D02*
X738132Y810633D01*
Y825632D01*
X802500Y890000D01*
X737500Y730000D02*
X738132Y730632D01*
Y745632D01*
X802500Y810000D01*
X637500Y970000D02*
X638133Y970632D01*
Y985632D01*
X702500Y1050000D01*
X637500Y890000D02*
X638133Y890633D01*
Y905632D01*
X702500Y970000D01*
X637500Y810000D02*
X638133Y810633D01*
Y825632D01*
X702500Y890000D01*
X637500Y730000D02*
X638133Y730632D01*
Y745632D01*
X702500Y810000D01*
X537500Y970000D02*
X538133Y970632D01*
Y985632D01*
X602500Y1050000D01*
X537500Y890000D02*
X538133Y890633D01*
Y905632D01*
X602500Y970000D01*
X537500Y810000D02*
X538133Y810633D01*
Y825632D01*
X602500Y890000D01*
X537500Y730000D02*
X538133Y730632D01*
Y745632D01*
X602500Y810000D01*
X550000Y445400D02*
X567100Y462500D01*
X742500D01*
Y527500D01*
Y430000D02*
Y462500D01*
X630000Y640000D02*
X742500Y527500D01*
Y430000D02*
X755000Y417500D01*
D64*
X886540Y1140000D02*
Y1155602D01*
X470000Y595000D02*
Y670000D01*
X527500Y555000D02*
X577500D01*
X711000Y1174000D02*
X868142D01*
X886540Y1155602D01*
X695500Y1158500D02*
X711000Y1174000D01*
X695500Y1122500D02*
Y1158500D01*
X460000Y605000D02*
X470000Y595000D01*
Y670000D02*
X492500Y692500D01*
X470000Y595000D02*
X510000Y555000D01*
X527500D01*
X528000Y489000D02*
Y554500D01*
X527500Y555000D02*
X528000Y554500D01*
X755000Y445000D02*
Y475000D01*
D65*
X597500Y672500D02*
X882500D01*
X935000Y620000D01*
X645500Y1122500D02*
X650500D01*
X680500D02*
Y1143500D01*
X577000Y1191000D02*
X645500Y1122500D01*
X472000Y1191000D02*
X577000D01*
X472000Y1234000D02*
X590000D01*
X680500Y1143500D01*
X581000Y1217000D02*
X665500Y1132500D01*
X472000Y1217000D02*
X581000D01*
X665500Y1122500D02*
Y1132500D01*
X630000Y640000D02*
X833000D01*
X853150Y619850D01*
D68*
X782500Y445200D02*
D03*
Y419800D02*
D03*
D69*
X541000Y367000D02*
D03*
D70*
Y307000D02*
D03*
D71*
X588000Y337000D02*
D03*
D72*
X955000Y988700D02*
D03*
Y963300D02*
D03*
Y937900D02*
D03*
Y912500D02*
D03*
Y887100D02*
D03*
Y861700D02*
D03*
Y836300D02*
D03*
X499200Y420000D02*
D03*
Y445400D02*
D03*
X524600Y420000D02*
D03*
Y445400D02*
D03*
X550000Y420000D02*
D03*
Y445400D02*
D03*
X575400Y420000D02*
D03*
Y445400D02*
D03*
X600800Y420000D02*
D03*
Y445400D02*
D03*
X626200Y420000D02*
D03*
Y445400D02*
D03*
X651600Y420000D02*
D03*
Y445400D02*
D03*
X677000Y420000D02*
D03*
Y445400D02*
D03*
X702400Y420000D02*
D03*
Y445400D02*
D03*
X727800Y420000D02*
D03*
D73*
X650500Y1122500D02*
D03*
X665500D02*
D03*
X680500D02*
D03*
X695500D02*
D03*
X710500D02*
D03*
X725500D02*
D03*
X740500D02*
D03*
X755500D02*
D03*
X770500D02*
D03*
X785500D02*
D03*
D74*
X891043Y1140602D02*
D03*
X545000Y1140500D02*
D03*
D75*
X919000Y1121000D02*
D03*
X517000D02*
D03*
Y1352000D02*
D03*
X919000D02*
D03*
D76*
X970000Y1345000D02*
D03*
X470000D02*
D03*
X970000Y255000D02*
D03*
X470000D02*
D03*
D77*
X727800Y445400D02*
D03*
D78*
X672900Y370000D02*
D03*
X647500D02*
D03*
D79*
X734000Y602500D02*
D03*
X935000Y620000D02*
D03*
X577500Y555000D02*
D03*
X471000Y1260000D02*
D03*
X472000Y1234000D02*
D03*
Y1217000D02*
D03*
X732500Y267500D02*
D03*
X607000Y266000D02*
D03*
X642500Y395000D02*
D03*
X520000Y392500D02*
D03*
X455000D02*
D03*
X472000Y1191000D02*
D03*
X492500Y692500D02*
D03*
X940000Y435000D02*
D03*
X455000Y625000D02*
D03*
X493010Y712756D02*
D03*
X460000Y605000D02*
D03*
X755000Y475000D02*
D03*
Y445000D02*
D03*
X960000Y475000D02*
D03*
X880000D02*
D03*
X597500Y672500D02*
D03*
X528000Y489000D02*
D03*
X507000D02*
D03*
X755000Y602500D02*
D03*
Y417500D02*
D03*
X562500Y577500D02*
D03*
X759750Y552750D02*
D03*
X615000Y655000D02*
D03*
X853150Y619850D02*
D03*
X630000Y640000D02*
D03*
X942000Y312000D02*
D03*
X853650Y412650D02*
D03*
M02*
