M48
;Layer_Color=9474304
;FILE_FORMAT=4:4
METRIC,LZ
;TYPE=PLATED
T2F00S00C0.7000
T3F00S00C0.7112
T4F00S00C0.9000
T5F00S00C1.0000
T7F00S00C1.0160
T8F00S00C2.0000
;TYPE=NON_PLATED
T9F00S00C0.8000
%
T02
X006505Y011225
X006655
X006805
X006955
X007105
X007255
X007405
X007555
X007705
X007855
T03
X00455Y003925
X0052
X006425Y00395
X00607Y00266
X007325Y002675
X00942Y00312
X0094Y00435
X0096Y00475
X0088
X0085365Y0041265
X0085315Y0061985
X00935Y0062
X00755Y006025
X00734
X0075975Y0055275
X00755Y00475
Y00445
Y004175
X00528Y00489
X00507
X005775Y00555
X005625Y005775
X0046Y00605
X00455Y00625
X004925Y006925
X0049301Y00712756
X005975Y006725
X00615Y00655
X0063Y0064
X00472Y01191
Y01217
Y01234
X00471Y0126
T04
X004992Y0042
Y004454
X005246
Y0042
X0055
Y004454
X005754
Y0042
X006008
Y004454
X006262
Y0042
X006516
Y004454
X00677
Y0042
X007024
Y004454
X007278
Y0042
X00955Y008363
Y008617
Y008871
Y009125
Y009379
Y009633
Y009887
Y010141
T05
X008025Y0073
X008375
Y00775
X008025
X009025
Y0073
X007375
X007025
Y00775
X007375
X006375
X006025
Y0073
X006375
X005375
Y00775
Y0081
Y00855
Y0089
Y00935
Y0097
Y01015
Y0105
Y01095
X006025
X006375
Y0105
X006025
Y01015
X006375
Y0097
X006025
Y00935
X006375
Y0089
Y00855
X006025
Y0089
Y0081
X006375
X007025
X007375
Y00855
X007025
Y0089
X007375
Y00935
Y0097
X007025
Y00935
Y01015
X007375
Y0105
X007025
Y01095
X007375
X008025
X008375
Y0105
X008025
Y01015
X008375
Y0097
X008025
Y00935
X008375
Y0089
Y00855
X008025
Y0089
Y0081
X008375
X009025
Y00855
Y0089
Y00935
Y0097
Y01015
Y0105
Y01095
T07
X006475Y0037
X006729
X007825Y004198
Y004452
T08
X0047Y00255
X0097
Y01345
X0047
T09
X00517Y01121
X00919
X00919Y01352
X00517
M30
